<?xml version="1.0" encoding="UTF-8" standalone="no"?>
<!-- Created with Inkscape (http://www.inkscape.org/) -->

<svg
   width="97.771339mm"
   height="113.1852mm"
   viewBox="0 0 97.771341 113.1852"
   version="1.1"
   id="svg1"
   xml:space="preserve"
   inkscape:version="1.4.2 (f4327f4, 2025-05-13)"
   sodipodi:docname="icon.svg"
   xmlns:inkscape="http://www.inkscape.org/namespaces/inkscape"
   xmlns:sodipodi="http://sodipodi.sourceforge.net/DTD/sodipodi-0.dtd"
   xmlns="http://www.w3.org/2000/svg"
   xmlns:svg="http://www.w3.org/2000/svg"><sodipodi:namedview
     id="namedview1"
     pagecolor="#ffffff"
     bordercolor="#000000"
     borderopacity="0.25"
     inkscape:showpageshadow="2"
     inkscape:pageopacity="0.0"
     inkscape:pagecheckerboard="0"
     inkscape:deskcolor="#d1d1d1"
     inkscape:document-units="mm"
     inkscape:zoom="1.0396254"
     inkscape:cx="30.780317"
     inkscape:cy="339.06443"
     inkscape:window-width="1803"
     inkscape:window-height="1211"
     inkscape:window-x="742"
     inkscape:window-y="113"
     inkscape:window-maximized="0"
     inkscape:current-layer="layer1" /><defs
     id="defs1" /><g
     inkscape:label="Capa 1"
     inkscape:groupmode="layer"
     id="layer1"
     transform="translate(-16.652292,-75.855825)"><g
       id="g30"><path
         style="fill:#a8e2e7"
         d="m 55.869332,183.65753 c -4.918073,-2.94751 -9.071448,-5.4886 -9.229723,-5.64688 -0.318788,-0.31879 0.318682,-1.38264 4.513604,-7.5326 1.364834,-2.00091 2.59041,-3.63802 2.723504,-3.63802 0.133093,0 1.695318,0.87135 3.47161,1.93633 1.776291,1.06499 4.334515,2.56426 5.684942,3.33171 l 2.455321,1.39538 7.069679,-4.23293 c 3.888323,-2.32811 7.666967,-4.57152 8.396985,-4.98535 1.712986,-0.97107 6.045897,-3.53214 13.849971,-8.18637 l 6.253975,-3.72978 0.0729,-19.68585 c 0.0401,-10.82722 0.0114,-19.94054 -0.0638,-20.25183 -0.0899,-0.37208 -1.02129,-1.0865 -2.71872,-2.08533 -1.420105,-0.83564 -4.54654,-2.67422 -6.947634,-4.08573 -4.413868,-2.59474 -8.829629,-5.20554 -15.345833,-9.073168 -1.964531,-1.166028 -4.524375,-2.650953 -5.688542,-3.299835 -2.195868,-1.223929 -4.894791,-2.982502 -4.894791,-3.189362 0,-0.06531 0.26789,0.05225 0.595312,0.261251 0.983106,0.627527 3.549398,2.138744 15.411979,9.075684 2.182813,1.27645 4.683125,2.76615 5.55625,3.31043 0.873125,0.54429 2.480469,1.4985 3.571875,2.12048 1.091407,0.62198 3.978672,2.31372 6.416146,3.75943 l 4.431768,2.62855 v 20.32029 20.32029 l -4.431768,2.64652 c -2.437474,1.45558 -6.813021,4.04633 -9.723437,5.75721 -2.910417,1.71088 -8.962673,5.29555 -13.449457,7.96592 -4.486785,2.67038 -8.288846,4.85523 -8.449024,4.85523 -0.276334,0 -1.23222,-0.55023 -8.385682,-4.82699 l -3.032079,-1.81276 -0.481003,0.60789 c -0.93298,1.17911 -6.861395,10.04365 -6.773292,10.12786 0.04911,0.0469 2.887255,1.7433 6.306995,3.76969 3.41974,2.0264 7.558357,4.49116 9.196927,5.47725 1.870915,1.12591 3.138799,1.73165 3.408183,1.62827 0.235931,-0.0905 2.288564,-1.27616 4.561407,-2.63474 2.272843,-1.35857 6.513691,-3.8746 9.424108,-5.59119 2.910417,-1.71658 7.137136,-4.21754 9.392708,-5.5577 4.375343,-2.59962 12.625324,-7.48957 19.976044,-11.84025 2.47385,-1.46421 4.64674,-2.84426 4.82864,-3.06679 0.25983,-0.31786 0.33073,-6.25431 0.33073,-27.69228 v -27.28769 l -0.59531,-0.54222 c -0.32742,-0.29822 -0.89297,-0.68951 -1.25677,-0.86953 -0.64248,-0.31791 -3.98605,-2.27915 -12.435417,-7.294251 C 97.613,94.974981 93.029094,92.277483 89.682115,90.319329 86.335136,88.361175 79.797771,84.530036 75.154637,81.805687 64.664663,75.650716 65.346142,76.002733 64.610454,76.359097 c -0.569826,0.276022 -0.572917,0.271182 -0.07933,-0.124261 0.650016,-0.520771 0.741975,-0.516422 1.793466,0.08481 0.477369,0.272955 1.760912,1.001214 2.852318,1.618352 1.091407,0.617138 3.234532,1.869774 4.7625,2.783636 1.527969,0.913862 5.992813,3.537889 9.921875,5.831172 3.929063,2.293283 8.870157,5.202072 10.980209,6.463977 2.110052,1.261905 5.443798,3.232346 7.408328,4.378757 7.04394,4.11052 10.99009,6.45205 11.57552,6.86857 l 0.59532,0.42354 v 27.61771 c 0,30.52708 0.14975,27.94974 -1.67872,28.89163 -0.45915,0.23653 -2.26358,1.28883 -4.00983,2.33844 -1.74625,1.04962 -6.74687,4.02372 -11.112493,6.6091 -4.365625,2.58539 -8.770938,5.20167 -9.789584,5.81396 -1.018645,0.61229 -2.84514,1.69839 -4.058876,2.41354 -1.213736,0.71516 -2.523424,1.495 -2.910417,1.73298 -0.386993,0.23799 -1.834717,1.08304 -3.217165,1.87791 -1.382448,0.79486 -3.108854,1.80957 -3.836458,2.2549 -5.025385,3.07582 -8.129693,4.82379 -8.529869,4.80302 -0.256281,-0.0133 -4.489842,-2.4358 -9.407914,-5.38331 z M 34.963376,167.83222 c -0.477543,-0.47294 -0.565091,-0.60794 -0.194552,-0.3 0.370539,0.30795 0.911832,0.69128 1.202874,0.85185 0.291042,0.16058 0.37859,0.29557 0.194552,0.3 -0.184038,0.004 -0.725331,-0.37891 -1.202874,-0.85185 z m 3.786311,0.56265 c 0.363728,-0.14504 0.905245,-0.46492 1.203371,-0.71084 0.298126,-0.24592 0.207012,-0.1197 -0.202476,0.28048 -0.409488,0.40018 -0.951005,0.72006 -1.203371,0.71083 -0.315879,-0.0115 -0.252791,-0.0989 0.202476,-0.28047 z M 56.543052,151.5643 c 0.691224,-0.0545 1.822318,-0.0545 2.513542,0 0.691224,0.0545 0.125677,0.0991 -1.256771,0.0991 -1.382448,0 -1.947995,-0.0446 -1.256771,-0.0991 z m -13.541144,-0.20239 c 0,-0.14552 0.170155,-0.56224 0.378123,-0.92605 0.207968,-0.3638 0.378124,-0.54239 0.378124,-0.39687 0,0.14552 -0.170156,0.56224 -0.378124,0.92604 -0.207968,0.3638 -0.378123,0.5424 -0.378123,0.39688 z m 44.828123,-1.64114 c -1.953032,-0.45965 -5.484925,-1.83467 -6.804263,-2.64901 l -1.565736,-0.96643 -1.900417,0.3025 c -3.303001,0.52576 -4.787034,0.61436 -5.604584,0.33461 -0.76416,-0.26148 -0.756691,-0.26628 0.200365,-0.12882 1.075008,0.1544 4.761159,-0.26818 6.318538,-0.72435 0.873232,-0.25578 1.069848,-0.20853 2.116667,0.50861 1.694478,1.16082 3.041031,1.79361 5.151289,2.42076 3.15195,0.93672 3.155485,0.93367 1.935834,-1.669 -0.574212,-1.22533 -1.159838,-2.83858 -1.301391,-3.58498 l -0.257368,-1.3571 1.41552,-1.6686 c 5.036269,-5.93671 5.182684,-13.98366 0.36253,-19.9246 -2.319928,-2.85936 -6.51023,-5.56779 -10.12115,-6.54186 -3.834884,-1.0345 -8.715517,-0.77696 -12.677368,0.66893 -2.268116,0.82776 -3.509352,1.55229 -5.523328,3.22403 -0.69705,0.5786 -1.326224,0.99314 -1.398165,0.9212 -0.205568,-0.20557 3.575211,-2.98229 5.089471,-3.73787 4.738051,-2.36417 11.7412,-2.63321 16.758348,-0.64382 3.424198,1.35776 7.563629,4.72303 9.412929,7.65251 3.620176,5.73473 2.835382,13.8466 -1.805998,18.66735 -1.001119,1.03981 -1.056236,1.17948 -0.939742,2.38125 0.06806,0.70216 0.618907,2.39089 1.224095,3.75273 0.993162,2.23488 1.158753,3.00665 0.625914,2.9172 -0.100553,-0.0169 -0.420948,-0.0867 -0.71199,-0.15524 z m -44.430797,-4.02242 -0.774547,-0.95103 0.893271,0.85142 c 0.491298,0.46828 0.839844,0.89624 0.774547,0.95103 -0.0653,0.0548 -0.46727,-0.32835 -0.893271,-0.85142 z m 12.668771,-8.34733 c -0.636334,-0.63634 -0.923833,-2.32475 -0.446125,-2.61999 0.111819,-0.0691 0.163484,0.31082 0.114813,0.84428 -0.115004,1.26049 0.395846,1.91561 1.687868,2.16454 1.031179,0.19868 1.03206,0.19991 0.164798,0.23017 -0.600833,0.021 -1.073837,-0.17149 -1.521354,-0.619 z m 9.206297,0.46704 c 0.254662,-0.0666 0.67138,-0.0666 0.926042,0 0.254661,0.0666 0.0463,0.121 -0.463021,0.121 -0.509323,0 -0.717682,-0.0545 -0.463021,-0.121 z m -25.906358,-2.46345 c 0,-1.0914 0.0467,-1.53789 0.103786,-0.99218 0.05708,0.5457 0.05708,1.43867 0,1.98437 -0.05708,0.54571 -0.103786,0.0992 -0.103786,-0.99219 z m 4.541254,-10.84791 c 0.716663,-0.72761 1.362556,-1.32292 1.435316,-1.32292 0.07276,0 -0.454069,0.59531 -1.170733,1.32292 -0.716663,0.7276 -1.362555,1.32291 -1.435316,1.32291 -0.07276,0 0.45407,-0.59531 1.170733,-1.32291 z m 11.446314,-5.4788 c 0.329118,-0.0633 0.805368,-0.0609 1.058333,0.005 0.252965,0.0662 -0.01631,0.118 -0.598397,0.11507 -0.582083,-0.003 -0.789055,-0.0571 -0.459936,-0.12041 z M 22.345656,101.10466 c 0,-0.0728 0.357188,-0.317 0.79375,-0.54275 0.436563,-0.22576 0.79375,-0.35094 0.79375,-0.27818 0,0.0728 -0.357187,0.317 -0.79375,0.54276 -0.436562,0.22575 -0.79375,0.35093 -0.79375,0.27817 z M 51.97899,83.642162 c 0,-0.07276 0.357187,-0.317 0.79375,-0.542756 0.436562,-0.225755 0.79375,-0.350932 0.79375,-0.278172 0,0.07276 -0.357188,0.317 -0.79375,0.542756 -0.436563,0.225755 -0.79375,0.350933 -0.79375,0.278172 z"
         id="path36" /><path
         style="fill:#5cc5cb"
         d="m 63.414255,187.7781 c -0.913885,-0.56213 -1.747322,-1.11693 -1.852083,-1.2329 -0.255127,-0.28241 0.04197,-0.12405 2.002755,1.0675 1.658474,1.00784 1.667139,1.00977 2.579688,0.57461 1.114106,-0.53128 1.227441,-0.35545 0.135014,0.20947 -1.035952,0.53571 -0.963008,0.55146 -2.865374,-0.61868 z m 4.373235,-0.46761 c 0.695327,-0.57783 3.2415,-2.03707 3.2415,-1.85774 0,0.0673 -0.565547,0.45108 -1.256771,0.85279 -0.691224,0.40171 -1.554427,0.9034 -1.918229,1.11487 l -0.661459,0.3845 z m -7.804855,-1.57025 c -0.618463,-0.37067 -1.124479,-0.73645 -1.124479,-0.81283 0,-0.14257 1.785026,0.87105 2.23573,1.26955 0.454739,0.40207 0.03115,0.22797 -1.111251,-0.45672 z m -3.571875,-2.11821 c -0.989129,-0.53661 -0.928921,-0.76011 0.06615,-0.24554 0.436563,0.22575 0.79375,0.46694 0.79375,0.53596 0,0.17026 -0.02843,0.16066 -0.859896,-0.29042 z m 17.528646,0.0648 c 0,-0.0648 0.863204,-0.62349 1.91823,-1.24161 1.055026,-0.61813 2.305182,-1.35578 2.778125,-1.63924 0.472942,-0.28345 0.859895,-0.45307 0.859895,-0.37693 0,0.10502 -3.177984,2.04118 -5.357812,3.2642 -0.109141,0.0612 -0.198438,0.0583 -0.198438,-0.006 z M 50.700125,180.2102 c -2.084903,-1.24142 -2.584119,-1.60908 -1.755779,-1.29311 0.961361,0.36671 4.340872,2.57801 3.762248,2.46173 -0.03638,-0.007 -0.939291,-0.53319 -2.006469,-1.16862 z m 29.060115,0.0371 c 0,-0.0648 0.863203,-0.62482 1.918229,-1.24457 2.433428,-1.42945 2.315104,-1.36668 2.315104,-1.22822 0,0.0648 -0.863203,0.62482 -1.918229,1.24457 -2.433428,1.42945 -2.315104,1.36668 -2.315104,1.22822 z m -33.062982,-2.42702 c 0.001,-0.14552 0.2453,-0.56224 0.542872,-0.92604 0.359362,-0.43935 0.449208,-0.48377 0.267561,-0.13229 -0.446015,0.863 -0.812393,1.34145 -0.810433,1.05833 z m 37.560898,-0.25099 c 0,-0.0728 0.357188,-0.31701 0.79375,-0.54276 0.436563,-0.22576 0.79375,-0.35093 0.79375,-0.27817 0,0.0728 -0.357187,0.317 -0.79375,0.54275 -0.436562,0.22576 -0.79375,0.35094 -0.79375,0.27818 z m 4.101042,-2.44842 c 0.145521,-0.15012 0.859896,-0.60603 1.5875,-1.01312 0.727604,-0.4071 1.203854,-0.61735 1.058333,-0.46723 -0.14552,0.15012 -0.859895,0.60603 -1.5875,1.01313 -0.727604,0.40709 -1.203854,0.61735 -1.058333,0.46722 z m -37.481772,-3.67688 c 1.183534,-1.73179 2.369368,-3.42563 2.635187,-3.76409 l 0.483307,-0.61539 1.372785,0.85337 c 1.814989,1.12826 1.759797,1.30779 -0.08242,0.2681 -0.995438,-0.56179 -1.455208,-0.70812 -1.455208,-0.46314 0,0.19698 -0.253636,0.58495 -0.563635,0.86216 -0.309999,0.27722 -1.337761,1.66758 -2.283915,3.08971 -0.946154,1.42212 -1.841261,2.66044 -1.989127,2.75183 -0.147867,0.0914 0.699497,-1.25076 1.88303,-2.98255 z m 12.734952,1.65174 c -0.795811,-0.48846 -2.607789,-1.56391 -4.026618,-2.38991 -1.418828,-0.826 -2.579687,-1.56921 -2.579687,-1.65158 0,-0.0824 0.446484,0.11839 0.992187,0.44614 0.545704,0.32775 1.787672,1.05132 2.75993,1.60792 0.972258,0.55661 2.335022,1.37177 3.028363,1.81148 0.693341,0.4397 1.415812,0.79946 1.60549,0.79946 0.189679,0 2.59181,-1.35682 5.33807,-3.01516 5.4247,-3.27572 6.11971,-3.67415 6.11971,-3.50829 0,0.0604 -1.849086,1.22541 -4.109079,2.58899 -5.905668,3.56324 -7.021709,4.19904 -7.370643,4.19904 -0.170936,0 -0.961911,-0.39964 -1.757723,-0.88809 z m 28.318695,-0.1466 c 0.363802,-0.29757 0.780521,-0.54187 0.926042,-0.54287 0.283123,-0.002 -0.195325,0.36441 -1.058334,0.81043 -0.351474,0.18165 -0.307051,0.0918 0.132292,-0.26756 z m 1.852083,-1.04043 c 0.734746,-0.6114 3.175,-1.99715 3.175,-1.80299 0,0.068 -0.565546,0.45233 -1.25677,0.85404 -0.691224,0.4017 -1.554427,0.9034 -1.91823,1.11487 l -0.661458,0.3845 z m 6.123354,-3.58222 c 0.23726,-0.27216 3.94306,-2.54474 4.1496,-2.54474 0.0927,0 -0.24596,0.27832 -0.75268,0.61849 -1.21011,0.81236 -3.614425,2.17574 -3.39692,1.92625 z m -21.469187,-2.1084 c 0,-0.0613 0.863203,-0.61719 1.918229,-1.23531 1.055026,-0.61813 2.305183,-1.35578 2.778125,-1.63924 0.472943,-0.28345 0.859896,-0.45073 0.859896,-0.37173 0,0.079 -0.982266,0.72362 -2.182812,1.43249 -2.699777,1.5941 -3.373438,1.9563 -3.373438,1.81379 z m 26.061457,-0.62836 c 0.14552,-0.13885 0.74083,-0.51988 1.32292,-0.84673 0.58208,-0.32685 0.82021,-0.39636 0.52916,-0.15447 -0.59113,0.4913 -2.26729,1.39741 -1.85208,1.0012 z m 3.04271,-1.74813 c 0,-0.2513 6.10476,-3.94953 6.26126,-3.79304 0.0594,0.0594 -1.17524,0.86763 -2.7436,1.7961 -1.56837,0.92847 -3.00145,1.78334 -3.18462,1.89971 -0.18317,0.11638 -0.33304,0.16013 -0.33304,0.0972 z m -23.151042,-1.1622 c 0.145521,-0.13758 0.859896,-0.5749 1.5875,-0.97181 0.727604,-0.39692 1.084792,-0.52625 0.79375,-0.28742 -0.5921,0.4859 -2.795947,1.65131 -2.38125,1.25923 z m 4.497917,-2.64592 c 0.145521,-0.13885 0.740833,-0.51988 1.322916,-0.84673 0.582084,-0.32685 0.820209,-0.39636 0.529167,-0.15447 -0.591139,0.4913 -2.267298,1.39741 -1.852083,1.0012 z M 16.652292,132.4442 c 0,-15.20693 0.03191,-21.42794 0.07092,-13.82448 0.039,7.60346 0.039,20.04549 0,27.64896 -0.039,7.60346 -0.07092,1.38244 -0.07092,-13.82448 z m 97.306078,10.71562 c -0.1614,-42.76434 -0.0756,-38.20144 -0.72781,-38.70833 -0.31844,-0.2475 -1.19112,-0.74766 -1.93929,-1.11146 -0.74817,-0.3638 -1.36215,-0.75177 -1.36442,-0.86216 -0.006,-0.28085 2.91084,1.35109 3.63515,2.03401 l 0.59656,0.56246 -0.0686,27.37712 c -0.0457,18.24142 -0.0896,21.81478 -0.13155,10.70836 z m -22.556464,15.37513 c 0,-0.0626 0.863204,-0.59621 1.91823,-1.18588 1.055026,-0.58967 2.305182,-1.3265 2.778125,-1.6374 0.472942,-0.3109 0.859895,-0.50472 0.859895,-0.43071 0,0.074 -0.74414,0.60418 -1.653645,1.17817 -1.81058,1.14265 -3.902605,2.25541 -3.902605,2.07582 z m 7.14375,-4.24904 c 0,-0.0728 0.357188,-0.317 0.79375,-0.54275 0.436563,-0.22576 0.793754,-0.35094 0.793754,-0.27818 0,0.0728 -0.357191,0.317 -0.793754,0.54276 -0.436562,0.22575 -0.79375,0.35093 -0.79375,0.27817 z m 2.315104,-1.3357 0.59531,-0.46222 V 132.1496 111.81122 l -1.45521,-0.82127 c -0.80036,-0.45169 -1.455204,-0.87249 -1.455204,-0.93509 0,-0.15918 1.572444,0.66101 2.449024,1.2774 l 0.72923,0.51279 -0.0678,20.38764 -0.0678,20.38763 -0.66145,0.39605 c -0.6613,0.39596 -0.66132,0.39594 -0.0662,-0.0662 z m -71.510162,-20.6383 c 2.2e-5,-11.05959 0.03269,-15.54538 0.07259,-9.96843 0.0399,5.57695 0.03988,14.6257 -4e-5,20.10833 -0.03992,5.48264 -0.07257,0.91968 -0.07255,-10.1399 z m 57.4211,16.77738 c -0.407475,-0.19331 -0.316206,-0.21954 0.396875,-0.11406 0.536792,0.0794 0.783257,0.0448 0.586351,-0.0822 -0.18683,-0.12057 -0.27235,-0.39471 -0.190045,-0.60919 0.0823,-0.21449 -0.151788,-1.07156 -0.520205,-1.90462 -0.368418,-0.83306 -0.664818,-1.66009 -0.658667,-1.83784 0.0062,-0.17775 0.284782,0.33166 0.61918,1.13202 0.334398,0.80037 0.867566,1.96123 1.184818,2.57969 l 0.576823,1.12448 -0.732982,-0.0186 c -0.40314,-0.0102 -0.971106,-0.13156 -1.262148,-0.26964 z m -4.167187,-1.44894 c -0.691224,-0.35982 -1.256771,-0.71347 -1.256771,-0.78589 0,-0.1181 2.619303,1.11908 2.888368,1.36428 0.327582,0.29851 -0.533221,-0.007 -1.631597,-0.57839 z m -10.597384,-1.09374 c -0.376898,-0.0977 -0.41227,-0.20179 -0.168459,-0.49556 0.169738,-0.20452 0.443951,-0.28571 0.609363,-0.18041 0.165413,0.1053 0.598407,0.20268 0.962209,0.2164 0.363802,0.0137 1.197239,0.0612 1.852083,0.10557 l 1.190625,0.0806 -1.322917,0.20606 c -1.4807,0.23063 -2.415403,0.25077 -3.122904,0.0673 z m 14.103113,-4.7286 c 0,-0.1783 0.45624,-0.62304 1.191664,-1.16162 0.29047,-0.21273 0.17843,-0.004 -0.248978,0.46302 -0.783745,0.85705 -0.942686,0.97484 -0.942686,0.6986 z m 2.216881,-2.60484 c 0.381444,-0.56209 0.693535,-1.18396 0.693535,-1.38194 0,-0.19797 0.09296,-0.35995 0.206577,-0.35995 0.113617,0 0.349672,-0.3791 0.524566,-0.84245 0.174893,-0.46334 0.393279,-0.76715 0.485301,-0.67513 0.208274,0.20827 -1.567579,3.4217 -2.164918,3.91745 -0.241229,0.2002 -0.126506,-0.0959 0.254939,-0.65798 z m 2.876926,-10.34085 c 0.0029,-0.58208 0.05712,-0.78905 0.120406,-0.45993 0.06329,0.32912 0.06088,0.80537 -0.0053,1.05833 -0.06622,0.25296 -0.118003,-0.0163 -0.115066,-0.5984 z m -0.430526,-2.01745 c -0.22057,-1.10285 -0.0068,-1.3166 0.23151,-0.23151 0.100457,0.45738 0.127496,0.88674 0.06009,0.95415 -0.06741,0.0674 -0.198627,-0.25778 -0.2916,-0.72264 z m -1.387864,-3.68201 c -0.450309,-0.85865 -0.714388,-1.4967 -0.586841,-1.41787 0.278087,0.17187 1.617839,2.76682 1.49296,2.8917 -0.04806,0.0481 -0.45581,-0.61517 -0.906119,-1.47383 z m -1.423334,-2.08458 c 0,-0.13388 -0.744141,-0.99056 -1.653646,-1.90374 -0.909505,-0.91318 -1.266049,-1.37609 -0.792319,-1.02869 1.05023,0.77017 3.115377,3.17585 2.726298,3.17585 -0.154183,0 -0.280333,-0.10954 -0.280333,-0.24342 z m -28.575,-2.96166 c 0.509323,-0.44128 1.283229,-1.04164 1.719792,-1.33412 0.612686,-0.41049 0.567417,-0.33064 -0.19845,0.35005 -0.545709,0.48502 -0.992193,1.09022 -0.992187,1.34488 8e-6,0.33133 -0.206924,0.45996 -0.727593,0.45227 l -0.727604,-0.0108 z m 23.01875,-1.72284 c -1.091406,-0.64097 -2.579687,-1.40588 -3.307292,-1.69981 -0.727604,-0.29392 -0.974926,-0.4633 -0.549604,-0.37641 1.02815,0.21006 4.41159,1.89487 5.354681,2.66641 1.041884,0.85236 0.788503,0.75252 -1.497785,-0.59019 z m -20.372917,-0.22894 c 0,-0.18105 1.620021,-0.98423 1.741057,-0.8632 0.05741,0.0574 -0.310842,0.30239 -0.818337,0.5444 -0.507496,0.24201 -0.92272,0.38547 -0.92272,0.3188 z m 4.233334,-1.8546 c 0.509323,-0.19614 1.164166,-0.35771 1.455208,-0.35905 0.291042,-0.001 -0.0066,0.1664 -0.661458,0.37273 -1.495259,0.47115 -2.028843,0.46195 -0.79375,-0.0137 z m 5.093229,-0.85594 c 0.691224,-0.0545 1.822318,-0.0545 2.513542,0 0.691224,0.0545 0.125677,0.0991 -1.256771,0.0991 -1.382448,0 -1.947995,-0.0446 -1.256771,-0.0991 z m 22.202906,-6.2791 c -2.439727,-1.45269 -2.816067,-1.83054 -0.658604,-0.66124 1.509929,0.81835 3.041804,1.84137 2.731219,1.82398 -0.07276,-0.004 -1.005437,-0.52731 -2.072615,-1.16274 z m -3.615927,-2.11848 c -0.582083,-0.35851 -0.975842,-0.65556 -0.875019,-0.6601 0.229291,-0.0103 2.065644,1.06403 2.065644,1.2085 0,0.17223 -0.08175,0.13458 -1.190625,-0.5484 z m -2.385977,-1.36688 c -1.350106,-0.8951 -1.825863,-1.36742 -0.771546,-0.76598 0.928107,0.52944 2.166272,1.44986 1.962171,1.45862 -0.07536,0.003 -0.611141,-0.30845 -1.190625,-0.69264 z m -2.57496,-1.56948 c -0.400183,-0.2171 -0.727605,-0.45046 -0.727605,-0.51857 0,-0.25557 0.418175,-0.0954 1.058334,0.40532 0.786306,0.61506 0.668565,0.65538 -0.330729,0.11325 z m 23.614059,-0.40147 c -0.43934,-0.35936 -0.48376,-0.44921 -0.13229,-0.26756 0.86301,0.44602 1.34146,0.81239 1.05833,0.81043 -0.14552,-0.001 -0.56223,-0.2453 -0.92604,-0.54287 z M 81.283048,99.943766 c -1.418029,-0.846844 -2.668185,-1.638834 -2.778125,-1.759978 -0.264559,-0.29152 -0.105073,-0.204983 2.908963,1.578395 2.212049,1.308847 2.832512,1.734297 2.513541,1.723527 -0.03638,-10e-4 -1.226351,-0.6951 -2.644379,-1.541944 z m 24.556832,0.196834 c -0.86313,-0.572904 -1.63703,-1.117602 -1.71979,-1.210445 -0.23941,-0.268575 2.56576,1.319065 3.22332,1.824305 1.11629,0.8577 0.0698,0.43046 -1.50353,-0.61386 z m -6.500474,-3.83755 c -2.110052,-1.246425 -3.95552,-2.393129 -4.101041,-2.548231 -0.366984,-0.391144 -0.26284,-0.334075 3.96875,2.174816 3.434095,2.036057 4.389935,2.654241 4.087815,2.64377 -0.0655,-0.0023 -1.84547,-1.023929 -3.955524,-2.270355 z m -22.026562,1.329396 c -0.989129,-0.536611 -0.928921,-0.760109 0.06615,-0.24554 0.436562,0.225756 0.79375,0.466938 0.79375,0.535962 0,0.170258 -0.02843,0.160657 -0.859896,-0.290422 z m -3.750445,-2.237329 c -1.444281,-0.871446 -2.694437,-1.661238 -2.778125,-1.755092 -0.463858,-0.520211 4.88978,2.626835 5.514334,3.241507 0.323436,0.31832 -0.364739,-0.05552 -2.736209,-1.486415 z m 17.045757,-4.249209 c -2.255572,-1.315689 -4.220104,-2.52537 -4.365625,-2.688181 -0.14552,-0.162811 0.03307,-0.11507 0.396875,0.10609 0.363803,0.221161 2.358099,1.383057 4.431771,2.581991 3.187411,1.842865 4.103112,2.435782 3.704167,2.39845 -0.03638,-0.0034 -1.911615,-1.082662 -4.167188,-2.39835 z m -22.562453,1.04263 c -0.985965,-0.601747 -1.743736,-1.143012 -1.683936,-1.202812 0.09199,-0.09199 3.192185,1.79524 3.570416,2.173471 0.325299,0.325299 -0.237673,0.03563 -1.88648,-0.970659 z m 16.940058,-4.345675 c -0.98913,-0.536611 -0.928922,-0.760109 0.06615,-0.24554 0.436563,0.225755 0.79375,0.466938 0.79375,0.535961 0,0.170259 -0.02843,0.160657 -0.859895,-0.290421 z m -3.702713,-2.186597 c -1.418029,-0.846844 -2.668185,-1.638834 -2.778125,-1.759978 -0.264559,-0.29152 -0.105073,-0.204983 2.908963,1.578395 2.212049,1.308851 2.832512,1.734301 2.513541,1.723532 -0.03638,-0.0012 -1.226351,-0.695106 -2.644379,-1.541949 z M 74.661479,81.770025 C 73.536735,81.111626 72.61649,80.50262 72.61649,80.416679 c 0,-0.08594 0.26789,0.01872 0.595312,0.232584 0.327422,0.213862 1.279922,0.774702 2.116667,1.246311 1.299623,0.732498 1.75831,1.071541 1.449676,1.071541 -0.03942,0 -0.991923,-0.538691 -2.116666,-1.19709 z M 69.243052,78.58399 c -0.618463,-0.370673 -1.124479,-0.736445 -1.124479,-0.812826 0,-0.142571 1.785026,0.871044 2.235729,1.269543 0.45474,0.402069 0.03115,0.227978 -1.11125,-0.456717 z m -2.579687,-1.395753 c -0.436563,-0.241357 -0.84336,-0.468596 -0.903993,-0.504976 -0.06063,-0.03638 -0.05535,-0.121044 0.01175,-0.188141 0.0671,-0.0671 0.592956,0.167312 1.168576,0.520909 1.171621,0.719714 0.956486,0.853783 -0.276333,0.172208 z"
         id="path35" /><path
         style="fill:#4bbbc3"
         d="m 63.612378,187.64658 c -3.109153,-1.91088 -13.395195,-8.02138 -14.919019,-8.86275 -0.885039,-0.48867 -1.65354,-0.92992 -1.707782,-0.98056 -0.05424,-0.0506 0.486867,-0.96051 1.202464,-2.02193 0.715596,-1.06142 2.025238,-3.00141 2.910316,-4.3111 0.885078,-1.30969 1.862016,-2.60806 2.170974,-2.88528 0.308958,-0.27721 0.561742,-0.66919 0.561742,-0.87105 0,-0.38462 0.568447,-0.10129 4.365625,2.17596 4.652418,2.79014 6.946858,4.09391 7.204683,4.09391 0.322242,0 1.035991,-0.41053 9.388608,-5.40006 8.235346,-4.91949 9.737182,-5.81096 14.230667,-8.44715 3.35996,-1.97118 7.554793,-4.47321 11.496144,-6.85692 l 1.20386,-0.72809 v -20.38261 -20.38261 l -1.12448,-0.66865 c -0.618466,-0.36776 -2.136513,-1.27578 -3.37344,-2.01783 -3.228538,-1.93684 -7.988669,-4.7015 -8.094945,-4.7015 -0.04985,0 -0.898022,-0.52167 -1.884826,-1.15927 -0.986803,-0.6376 -2.210906,-1.39331 -2.720229,-1.67935 -2.790046,-1.566924 -9.503706,-5.537091 -10.186459,-6.023828 -0.436562,-0.311227 -1.567656,-0.963208 -2.513541,-1.448845 -0.945886,-0.485638 -2.506403,-1.386922 -3.467817,-2.002853 -0.961414,-0.615931 -2.003211,-1.200867 -2.315104,-1.299858 -0.561529,-0.178222 -0.56704,-0.250378 -0.563028,-7.37205 0.0022,-3.955636 0.09152,-7.073004 0.198438,-6.927483 0.106912,0.145521 0.670636,0.499791 1.252719,0.787267 0.582083,0.287476 1.475052,0.777563 1.984375,1.089082 0.509323,0.311519 2.414323,1.437169 4.233333,2.501444 1.819011,1.064275 4.855105,2.848148 6.746875,3.964163 1.891771,1.116014 5.16599,3.043374 7.276042,4.283022 12.463332,7.322159 18.158357,10.687419 20.621887,12.185739 0.66343,0.40349 1.38483,0.81153 1.60311,0.90674 0.21828,0.0952 0.45641,0.24224 0.52917,0.32672 0.0728,0.0845 0.78714,0.49745 1.5875,0.9177 0.80036,0.42026 1.65206,0.9334 1.89266,1.14034 0.40122,0.34507 0.44042,2.64892 0.47326,27.81292 l 0.0358,27.43669 -1.53159,0.89779 c -0.84238,0.49379 -2.42457,1.45771 -3.51597,2.14206 -2.22578,1.39562 -3.53828,2.18035 -4.50472,2.69331 -0.60171,0.31937 -6.2486,3.6697 -9.385909,5.56871 -0.727604,0.44042 -1.680104,1.00441 -2.116666,1.25333 -0.436563,0.24891 -2.69875,1.58677 -5.027084,2.973 -2.328333,1.38624 -7.209895,4.27989 -10.847916,6.43033 -3.638021,2.15044 -7.676898,4.54682 -8.975282,5.32529 -1.298384,0.77847 -2.492734,1.41539 -2.654111,1.41539 -0.161378,0 -0.944532,-0.40017 -1.740344,-0.88928 z m 3.592198,-0.53414 c 0.730344,-0.49184 2.276567,-1.40189 3.436052,-2.02232 1.159484,-0.62043 2.46666,-1.393 2.904835,-1.71682 0.438174,-0.32382 1.926456,-1.21581 3.307291,-1.98219 1.380836,-0.76638 3.170285,-1.84109 3.976553,-2.38823 0.806268,-0.54714 2.383789,-1.47541 3.505602,-2.0628 1.121814,-0.5874 2.379948,-1.31031 2.795855,-1.60646 0.415907,-0.29615 1.87448,-1.17398 3.241273,-1.95074 1.366793,-0.77675 3.199453,-1.85903 4.072578,-2.40505 3.217729,-2.01228 7.476255,-4.51828 9.921875,-5.83869 1.38245,-0.7464 3.10885,-1.81885 3.83646,-2.38322 0.7276,-0.56438 2.04526,-1.35592 2.92812,-1.75898 0.88287,-0.40306 1.74834,-0.9053 1.92328,-1.11609 0.39345,-0.47407 0.45695,-54.18058 0.0649,-54.91308 -0.13366,-0.24975 -0.81827,-0.73675 -1.52134,-1.08224 -1.89705,-0.93221 -6.12987,-3.43647 -6.31513,-3.73623 -0.0886,-0.14338 -0.89659,-0.630548 -1.79549,-1.082592 -0.8989,-0.452044 -4.194216,-2.342641 -7.322914,-4.201326 -3.128697,-1.858686 -6.172082,-3.659058 -6.763075,-4.000827 -0.590994,-0.341769 -2.257869,-1.32504 -3.704167,-2.185045 -1.446298,-0.860006 -3.998851,-2.363844 -5.672341,-3.341863 -1.67349,-0.978019 -5.370208,-3.161644 -8.21493,-4.852499 -2.844723,-1.690856 -5.301383,-3.074283 -5.459246,-3.074283 -0.157863,0 -0.350054,0.24103 -0.427092,0.535622 -0.226599,0.866518 -0.162482,11.134064 0.0734,11.754488 0.271616,0.714405 2.967834,2.539665 5.561198,3.764769 1.091407,0.51558 2.579688,1.362815 3.307292,1.882745 1.792896,1.281165 5.647058,3.493626 6.085983,3.493626 0.19564,0 0.734831,0.31901 1.198203,0.708912 0.463371,0.389902 1.189156,0.895913 1.612854,1.124483 0.726371,0.39183 3.93636,2.33982 6.029614,3.65909 0.521591,0.32872 1.722252,1.00363 2.668138,1.49978 0.945885,0.49615 2.811285,1.59641 4.145332,2.44502 1.334047,0.84861 3.034412,1.87239 3.778591,2.27507 0.74418,0.40268 1.45409,0.99799 1.57759,1.32292 0.26101,0.68673 0.39898,39.81367 0.14275,40.48141 -0.0945,0.24618 -0.60644,0.70819 -1.1377,1.02669 -0.53126,0.3185 -2.097032,1.32073 -3.47948,2.22718 -1.382448,0.90645 -3.40651,2.12016 -4.497917,2.69713 -1.091406,0.57697 -2.579687,1.41615 -3.307291,1.86484 -0.727604,0.44869 -1.977761,1.19541 -2.778125,1.65937 -0.800365,0.46396 -2.169584,1.2862 -3.042709,1.82719 -0.873125,0.54099 -2.778125,1.66437 -4.233333,2.49639 -1.455208,0.83202 -2.824427,1.62255 -3.042708,1.75674 -0.218282,0.13419 -1.289844,0.78555 -2.38125,1.44746 -2.961656,1.79617 -2.950898,1.7895 -4.114509,2.55094 -1.669127,1.09224 -4.228117,2.33563 -4.806889,2.33563 -0.286859,0 -1.260632,-0.47768 -2.16394,-1.06152 -0.903308,-0.58383 -2.380282,-1.43235 -3.282166,-1.88559 -0.901883,-0.45324 -1.992261,-1.07689 -2.423061,-1.38588 -0.4308,-0.30899 -1.323769,-0.81824 -1.984375,-1.13166 l -1.201102,-0.56987 -0.876862,0.83445 c -0.482275,0.45895 -1.248034,1.48929 -1.701686,2.28966 -0.453653,0.80036 -1.199992,1.89984 -1.658532,2.44327 -0.458539,0.54344 -1.161558,1.59043 -1.562264,2.32666 -0.84984,1.56144 -0.798138,1.67785 1.230719,2.77116 0.766494,0.41305 2.227062,1.30659 3.245708,1.98564 1.018646,0.67905 2.905969,1.79249 4.194051,2.47431 1.288081,0.68182 2.89385,1.62402 3.568373,2.09379 1.569997,1.09342 4.290333,2.54148 4.808816,2.55978 0.220224,0.008 0.997961,-0.38828 1.728305,-0.88012 z m 18.847891,-38.41038 c -0.83214,-0.20173 -2.224104,-0.72577 -3.093254,-1.16451 -1.619339,-0.81744 -4.21664,-2.39335 -3.944544,-2.39335 0.344149,0 2.110423,0.83481 3.561568,1.68333 0.852295,0.49837 2.180271,1.09263 2.951057,1.3206 1.289677,0.38142 1.41473,0.37981 1.568222,-0.0202 0.09658,-0.25169 -0.190198,-1.11037 -0.681295,-2.03993 -1.30204,-2.46454 -1.103148,-4.36939 0.623441,-5.97091 0.696763,-0.64628 2.247578,-3.39634 2.247578,-3.98561 0,-0.1631 0.223095,-0.58016 0.495767,-0.92681 0.612936,-0.77922 1.217049,-4.4435 1.013988,-6.15039 -0.235095,-1.97615 -1.446461,-5.34305 -2.442567,-6.78892 -2.028278,-2.94409 -3.490277,-4.15626 -7.280181,-6.03614 -3.048259,-1.51201 -3.880229,-1.80766 -5.778387,-2.05345 -1.219582,-0.15792 -3.005519,-0.21108 -3.96875,-0.11814 -2.185583,0.2109 -6.59939,1.30417 -8.085494,2.00272 -1.055081,0.49595 -3.024081,2.23581 -2.775875,2.45285 0.06281,0.0549 0.915966,0.35532 1.895893,0.66754 2.824011,0.89979 4.700606,1.64285 4.700606,1.86127 0,0.11081 0.149525,0.20147 0.332278,0.20147 1.293359,0 5.479751,3.92849 6.878934,6.45515 1.808213,3.2653 2.501324,7.4551 1.747978,10.56638 -0.15856,0.65484 -0.324182,1.46237 -0.368049,1.7945 -0.09181,0.69512 -1.550328,3.5923 -2.278023,4.52504 -0.600537,0.76974 -0.623919,1.08879 -0.07979,1.08879 0.226869,0 0.345459,0.10846 0.263533,0.24102 -0.164301,0.26585 -0.820549,0.23182 -1.109914,-0.0575 -0.101544,-0.10154 -0.423091,0.024 -0.714549,0.27898 -0.291459,0.25498 0.08775,-0.34969 0.842677,-1.3437 1.653342,-2.17695 1.939372,-2.71064 2.725311,-5.08499 1.246032,-3.76429 0.656277,-8.32249 -1.54809,-11.96514 -1.716679,-2.83676 -4.005665,-4.91689 -7.064119,-6.41957 -2.657714,-1.30579 -5.095489,-2.08844 -6.629073,-2.12827 -0.442369,-0.0115 -0.65548,-0.0809 -0.473579,-0.15434 0.181902,-0.0734 0.33073,-0.34173 0.33073,-0.59629 0,-1.04357 3.261102,-2.97358 6.808827,-4.02964 2.517282,-0.74932 7.260612,-0.93716 9.835035,-0.38947 4.244747,0.90304 8.531583,3.5096 11.365108,6.91042 2.582833,3.09994 3.844863,7.94979 3.092268,11.88325 -0.335287,1.75239 -1.260754,4.21704 -1.747265,4.65321 -0.08116,0.0728 -0.304195,0.51954 -0.49564,0.99285 -0.191445,0.47331 -0.883697,1.41958 -1.538338,2.10282 -1.174554,1.22587 -1.188467,1.26164 -1.054681,2.71132 0.07457,0.80798 0.449933,2.17702 0.834148,3.04231 0.384215,0.86528 0.631232,1.74873 0.548927,1.96322 -0.08231,0.21448 0.0032,0.48696 0.190045,0.60551 0.454764,0.28855 0.09851,0.24937 -1.702457,-0.18725 z m -11.319311,-2.72157 c 1.026963,-0.34441 4.183349,-0.60712 3.670151,-0.30548 -0.23699,0.1393 -1.308553,0.31493 -2.38125,0.39029 -1.218716,0.0856 -1.702225,0.0538 -1.288901,-0.0848 z"
         id="path34" /><path
         style="fill:#36c3cc"
         d="m 63.484863,187.13267 c -0.87505,-0.46517 -2.142884,-1.23012 -2.817408,-1.69989 -0.674523,-0.46977 -2.280292,-1.41197 -3.568373,-2.09379 -1.288082,-0.68182 -3.175405,-1.79526 -4.194051,-2.47431 -1.018646,-0.67905 -2.479214,-1.57259 -3.245708,-1.98564 -2.028857,-1.09331 -2.080559,-1.20972 -1.230719,-2.77116 0.400706,-0.73623 1.103725,-1.78322 1.562264,-2.32666 0.45854,-0.54343 1.204879,-1.64291 1.658532,-2.44327 0.453652,-0.80037 1.219411,-1.83071 1.701686,-2.28966 l 0.876862,-0.83445 1.201102,0.56987 c 0.660606,0.31342 1.553575,0.82267 1.984375,1.13166 0.4308,0.30899 1.521178,0.93264 2.423061,1.38588 0.901884,0.45324 2.378858,1.30176 3.282166,1.88559 0.903308,0.58384 1.877081,1.06152 2.16394,1.06152 0.578772,0 3.137762,-1.24339 4.806889,-2.33563 1.163611,-0.76144 1.152853,-0.75477 4.114509,-2.55094 1.091406,-0.66191 2.162968,-1.31327 2.38125,-1.44746 0.218281,-0.13419 1.5875,-0.92472 3.042708,-1.75674 1.455208,-0.83202 3.360208,-1.9554 4.233333,-2.49639 0.873125,-0.54099 2.242344,-1.36323 3.042709,-1.82719 0.800364,-0.46396 2.050521,-1.21068 2.778125,-1.65937 0.727604,-0.44869 2.215885,-1.28787 3.307291,-1.86484 1.091407,-0.57697 3.115469,-1.79068 4.497917,-2.69713 1.382448,-0.90645 2.948217,-1.90868 3.479477,-2.22718 0.53126,-0.3185 1.04323,-0.78051 1.1377,-1.02669 0.25623,-0.66774 0.11826,-39.79468 -0.14275,-40.48141 -0.1235,-0.32493 -0.83341,-0.92024 -1.57759,-1.32292 -0.744176,-0.40268 -2.444541,-1.42646 -3.778588,-2.27507 -1.334047,-0.84861 -3.199447,-1.94887 -4.145332,-2.44502 -0.945886,-0.49615 -2.146547,-1.17106 -2.668138,-1.49978 -2.093254,-1.31927 -5.303243,-3.26726 -6.029614,-3.65909 -0.423698,-0.22857 -1.149483,-0.734581 -1.612854,-1.124483 -0.463372,-0.389902 -1.002563,-0.708912 -1.198203,-0.708912 -0.438925,0 -4.293087,-2.212461 -6.085983,-3.493626 -0.727604,-0.51993 -2.215885,-1.367165 -3.307292,-1.882745 -2.593364,-1.225104 -5.289582,-3.050364 -5.561198,-3.764769 -0.235885,-0.620424 -0.300002,-10.88797 -0.0734,-11.754488 0.07704,-0.294592 0.269229,-0.535622 0.427092,-0.535622 0.157863,0 2.614523,1.383427 5.459246,3.074283 2.844722,1.690855 6.54144,3.87448 8.21493,4.852499 1.67349,0.978019 4.226043,2.481857 5.672341,3.341863 1.446298,0.860005 3.113173,1.843276 3.704167,2.185045 0.590993,0.341769 3.634378,2.142141 6.763075,4.000827 3.128698,1.858685 6.424011,3.749282 7.322911,4.201326 0.8989,0.452044 1.70687,0.939212 1.79549,1.082592 0.18526,0.29976 4.41808,2.80402 6.31513,3.73623 0.70307,0.34549 1.38768,0.83249 1.52134,1.08224 0.39202,0.7325 0.32852,54.43901 -0.0649,54.91308 -0.17494,0.21079 -1.04041,0.71303 -1.92328,1.11609 -0.88286,0.40306 -2.20052,1.1946 -2.92812,1.75898 -0.72761,0.56437 -2.45401,1.63682 -3.83646,2.38322 -2.44562,1.32041 -6.704143,3.82641 -9.921872,5.83869 -0.873125,0.54602 -2.705785,1.6283 -4.072578,2.40505 -1.366793,0.77676 -2.825366,1.65459 -3.241273,1.95074 -0.415907,0.29615 -1.674041,1.01906 -2.795855,1.60646 -1.121813,0.58739 -2.699334,1.51566 -3.505602,2.0628 -0.806268,0.54714 -2.595717,1.62185 -3.976553,2.38823 -1.380835,0.76638 -2.869117,1.65837 -3.307291,1.98219 -0.438175,0.32382 -1.745351,1.09639 -2.904835,1.71682 -1.159485,0.62043 -2.705708,1.53048 -3.436052,2.02232 -0.730344,0.49184 -1.508081,0.8879 -1.728305,0.88012 -0.220223,-0.008 -1.116357,-0.39472 -1.991408,-0.85989 z M 85.31649,148.0683 c -0.800365,-0.25293 -2.088969,-0.83776 -2.863564,-1.29962 -2.339273,-1.39483 -3.035319,-1.61014 -4.29214,-1.32776 -1.418636,0.31875 -4.902263,0.4286 -5.170605,0.16304 -0.112096,-0.11093 0.04795,-0.54221 0.355656,-0.95841 1.118214,-1.51246 2.395647,-4.43592 2.681888,-6.13761 0.936317,-5.56636 -0.626063,-10.5033 -4.534526,-14.32858 -2.223889,-2.17656 -4.332534,-3.38718 -8.066871,-4.63137 -1.566609,-0.52196 -2.899773,-0.99078 -2.962587,-1.04183 -0.253887,-0.20632 1.729688,-1.95402 2.775875,-2.44579 1.486104,-0.69855 5.899911,-1.79182 8.085494,-2.00272 0.963231,-0.0929 2.749168,-0.0398 3.96875,0.11814 1.898158,0.24579 2.730128,0.54144 5.778387,2.05345 3.789904,1.87988 5.251903,3.09205 7.280181,6.03614 0.996106,1.44587 2.207472,4.81277 2.442567,6.78892 0.203061,1.70689 -0.401052,5.37117 -1.013988,6.15039 -0.272672,0.34665 -0.495767,0.76371 -0.495767,0.92681 0,0.58927 -1.550815,3.33933 -2.247578,3.98561 -1.703912,1.58048 -1.936543,3.6555 -0.662839,5.91239 0.788014,1.39628 0.976171,2.14806 0.595313,2.37857 -0.109141,0.066 -0.853282,-0.0868 -1.653646,-0.33977 z"
         id="path33" /><path
         style="fill:#4b738b"
         d="m 38.551385,173.15959 c -0.901836,-0.57755 -1.193683,-0.9654 -0.396875,-0.52742 0.607069,0.33368 1.558086,1.0691 1.389063,1.07416 -0.07276,0.002 -0.519245,-0.24386 -0.992188,-0.54674 z m 5.409,-2.10657 c 0.262889,-0.44775 0.647053,-0.95376 0.853699,-1.12448 0.206646,-0.17071 0.042,0.19563 -0.365888,0.8141 -0.85646,1.29862 -1.194217,1.51353 -0.487811,0.31038 z m -8.745052,-2.59847 c -0.767772,-0.50618 -1.757259,-1.79354 -1.749356,-2.27598 0.0024,-0.14552 0.254616,0.16701 0.560517,0.69451 0.3059,0.52751 0.987774,1.20938 1.515276,1.51528 0.527502,0.3059 0.840032,0.55813 0.694511,0.56052 -0.145521,0.002 -0.604947,-0.22007 -1.020948,-0.49433 z m 3.822444,0.17142 c 0.06136,-0.0364 0.527688,-0.42333 1.036284,-0.8599 l 0.92472,-0.79375 -0.777105,0.8599 c -0.427408,0.47294 -0.893736,0.85989 -1.036285,0.85989 -0.142548,0 -0.208975,-0.0298 -0.147614,-0.0661 z M 25.45451,165.36578 c -0.989129,-0.53661 -0.928921,-0.76011 0.06615,-0.24554 0.436563,0.22575 0.79375,0.46694 0.79375,0.53596 0,0.17026 -0.02843,0.16066 -0.859896,-0.29042 z m 7.800447,-0.37783 c 0,-0.50933 0.05445,-0.71768 0.121,-0.46302 0.06655,0.25466 0.06655,0.67138 0,0.92604 -0.06655,0.25466 -0.121,0.0463 -0.121,-0.46302 z m 7.812251,-0.95525 c -0.09499,-0.45262 -0.502245,-1.22653 -0.905007,-1.71979 -0.589579,-0.72205 -0.612811,-0.79383 -0.119207,-0.3683 0.775468,0.66853 1.41292,1.88627 1.290774,2.46579 -0.05594,0.2654 -0.163614,0.11283 -0.26656,-0.3777 z m -2.251239,-5.68701 c -0.763985,-0.44537 -1.389063,-0.87077 -1.389063,-0.94535 0,-0.1469 2.353023,1.16145 2.764896,1.53737 0.448385,0.40923 0.0411,0.23398 -1.375833,-0.59202 z m -4.431771,-2.6532 c -0.727604,-0.4503 -1.441979,-0.9413 -1.5875,-1.0911 -0.292768,-0.30137 1.530423,0.73598 2.536115,1.44299 1.056287,0.74258 0.466069,0.52364 -0.948615,-0.35189 z m 7.645653,-2.03751 c 0.12889,-0.20855 1.747055,-0.0991 1.747055,0.11821 0,0.0562 -0.423745,0.10226 -0.941656,0.10226 -0.517911,0 -0.880341,-0.0992 -0.805399,-0.22047 z m 4.621703,-0.98051 c 0.48965,-0.21259 0.9659,-0.3823 1.058333,-0.37715 0.344238,0.0192 -1.170434,0.76559 -1.551731,0.76465 -0.218281,-5.4e-4 0.0037,-0.17492 0.493398,-0.3875 z m 1.887852,-0.76981 c 0,-0.0728 0.357188,-0.317 0.79375,-0.54275 0.436563,-0.22576 0.79375,-0.35094 0.79375,-0.27818 0,0.0728 -0.357187,0.317 -0.79375,0.54276 -0.436562,0.22575 -0.79375,0.35093 -0.79375,0.27817 z m 7.080689,-0.59759 c 0.329119,-0.0633 0.805369,-0.0609 1.058334,0.005 0.252964,0.0662 -0.01631,0.118 -0.598398,0.11506 -0.582083,-0.003 -0.789054,-0.0571 -0.459936,-0.1204 z m 3.436499,4e-4 c 0.327422,-0.0631 0.863203,-0.0631 1.190625,0 0.327422,0.0631 0.05953,0.11466 -0.595313,0.11466 -0.654843,0 -0.922734,-0.0516 -0.595312,-0.11466 z m 4.299479,-0.73931 c 1.208008,-0.46521 1.683295,-0.45834 0.661458,0.01 -0.436562,0.1999 -0.972343,0.35977 -1.190625,0.35526 -0.218281,-0.005 0.01984,-0.16867 0.529167,-0.36481 z m 6.085417,-2.86115 c 0,-0.0728 0.595312,-0.63071 1.322916,-1.2399 0.727605,-0.60918 1.322917,-1.04807 1.322917,-0.97531 0,0.0728 -0.595312,0.63071 -1.322917,1.2399 -0.727604,0.60918 -1.322916,1.04807 -1.322916,0.97531 z m -25.81352,-2.09979 -0.777105,-0.8599 0.859895,0.77711 c 0.472943,0.42741 0.859896,0.81436 0.859896,0.85989 0,0.20441 -0.218315,0.0244 -0.942686,-0.7771 z m 30.495428,-3.50241 c 0.242008,-0.50749 0.486986,-0.87575 0.544396,-0.81834 0.121036,0.12104 -0.682148,1.74106 -0.863193,1.74106 -0.06667,0 0.07679,-0.41522 0.318797,-0.92272 z m -25.253263,-4.02216 c 0.254662,-0.0666 0.671381,-0.0666 0.926042,0 0.254662,0.0666 0.0463,0.121 -0.463021,0.121 -0.509323,0 -0.717682,-0.0545 -0.463021,-0.121 z m 7.057252,-0.59102 c -1.010783,-1.01078 -1.062395,-2.40124 -0.123966,-3.33967 0.357188,-0.35718 0.803672,-0.64581 0.992188,-0.64138 0.188516,0.004 0.104631,0.13829 -0.186411,0.29747 -0.830698,0.45436 -1.190625,1.04829 -1.190625,1.9647 0,1.15266 0.751229,1.99027 2.000759,2.23083 l 1.041949,0.2006 -0.880248,0.0304 c -0.64533,0.0223 -1.086651,-0.17597 -1.653646,-0.74297 z m 9.346915,0.59102 c 0.254662,-0.0666 0.67138,-0.0666 0.926042,0 0.254661,0.0666 0.0463,0.121 -0.463021,0.121 -0.509323,0 -0.717682,-0.0545 -0.463021,-0.121 z m 2.050521,-0.61137 c 0.291042,-0.29104 0.529167,-0.66807 0.529167,-0.83785 0,-0.16977 0.07566,-0.23302 0.168131,-0.14054 0.211983,0.21198 -0.619888,1.50756 -0.967981,1.50756 -0.142166,0 -0.02036,-0.23813 0.270683,-0.52917 z m -27.690548,-1.98437 c 9.61e-4,-1.16417 0.04748,-1.60751 0.103369,-0.9852 0.05589,0.62231 0.05511,1.57481 -0.0017,2.11667 -0.05685,0.54186 -0.102583,0.0327 -0.101622,-1.13147 z m 36.239201,0 c 0.0015,-0.87313 0.05088,-1.19842 0.109766,-0.72287 0.05889,0.47555 0.05767,1.18992 -0.0027,1.5875 -0.06037,0.39758 -0.10855,0.008 -0.107066,-0.86463 z m -8.945528,-1.47316 c -0.436562,-0.27964 -0.658112,-0.50906 -0.492332,-0.50983 0.165779,-7.6e-4 0.582498,0.23278 0.926041,0.51898 0.786624,0.65532 0.597411,0.65133 -0.433709,-0.009 z m -25.532292,-5.80289 c 0.296957,-0.58208 0.599453,-1.05833 0.672213,-1.05833 0.07276,0 -0.110673,0.47625 -0.407629,1.05833 -0.296957,0.58209 -0.599453,1.05834 -0.672213,1.05834 -0.07276,0 0.110672,-0.47625 0.407629,-1.05834 z m 2.634776,-3.50572 c 1.096424,-1.16819 1.333974,-1.37824 1.333974,-1.17957 0,0.0425 -0.565547,0.60801 -1.256771,1.25677 l -1.25677,1.17957 z m 25.940091,-1.0655 c -0.509397,-0.469 -1.223772,-1.06906 -1.5875,-1.33346 -0.639115,-0.46459 -0.634092,-0.46459 0.14955,0 1.079782,0.64015 1.757809,1.1761 2.198084,1.7375 0.542499,0.69173 0.276368,0.55028 -0.760134,-0.40404 z m -24.163438,-0.47701 c 0.328266,-0.39737 1.938571,-1.41044 1.938571,-1.21959 0,0.0617 -0.506015,0.44581 -1.124479,0.8537 -0.618463,0.40788 -0.984805,0.57253 -0.814092,0.36589 z m 9.148467,-3.8654 c 0.254662,-0.0665 0.67138,-0.0665 0.926042,0 0.254661,0.0666 0.0463,0.121 -0.463021,0.121 -0.509323,0 -0.717682,-0.0544 -0.463021,-0.121 z m -25.739261,-7.15374 c 0.156883,-0.32409 0.550405,-0.71761 0.874492,-0.87449 0.547956,-0.26526 0.555305,-0.25791 0.104868,0.10487 -0.266409,0.21456 -0.65993,0.60808 -0.874492,0.87449 -0.362774,0.45044 -0.370123,0.44309 -0.104868,-0.10487 z m 3.448115,-2.30758 c 0,-0.0728 0.357188,-0.317 0.79375,-0.54275 0.436563,-0.22576 0.79375,-0.35094 0.79375,-0.27818 0,0.0728 -0.357187,0.317 -0.79375,0.54276 -0.436562,0.22575 -0.79375,0.35093 -0.79375,0.27817 z m -15.852951,-5.25304 c 0.06063,-0.044 0.46743,-0.28924 0.903993,-0.54487 l 0.79375,-0.46479 -0.624624,0.54487 c -0.343544,0.29968 -0.75034,0.54487 -0.903993,0.54487 -0.153653,0 -0.22976,-0.036 -0.169126,-0.0801 z m 3.682118,-2.15813 c 0,-0.0728 0.47625,-0.37525 1.058333,-0.67221 0.582084,-0.29696 1.058334,-0.48039 1.058334,-0.40763 0,0.0728 -0.47625,0.37526 -1.058334,0.67221 -0.582083,0.29696 -1.058333,0.48039 -1.058333,0.40763 z m 3.175,-1.84924 c 0,-0.0728 0.357187,-0.31701 0.79375,-0.54276 0.436562,-0.225756 0.79375,-0.350933 0.79375,-0.278173 0,0.07276 -0.357188,0.317003 -0.79375,0.542753 -0.436563,0.22576 -0.79375,0.35094 -0.79375,0.27818 z m 30.95625,-3.704171 c 0,-0.07276 0.357187,-0.317001 0.79375,-0.542756 0.436562,-0.225755 0.79375,-0.350933 0.79375,-0.278172 0,0.07276 -0.357188,0.317 -0.79375,0.542755 -0.436563,0.225756 -0.79375,0.350933 -0.79375,0.278173 z M 32.796698,95.210518 c 0.145521,-0.138857 0.740833,-0.519889 1.322917,-0.846736 0.582083,-0.326848 0.820208,-0.39636 0.529166,-0.154471 -0.591139,0.491305 -2.267298,1.39741 -1.852083,1.001207 z m 28.045833,-2.05435 c 0.591139,-0.491305 2.267299,-1.39741 1.852084,-1.001207 -0.145521,0.138858 -0.740834,0.519889 -1.322917,0.846737 -0.582083,0.326847 -0.820208,0.396359 -0.529167,0.15447 z m 2.248959,-1.311923 c 0,-0.07276 0.357187,-0.317 0.79375,-0.542755 0.436562,-0.225756 0.79375,-0.350933 0.79375,-0.278173 0,0.07276 -0.357188,0.317001 -0.79375,0.542756 -0.436563,0.225755 -0.79375,0.350933 -0.79375,0.278172 z m 2.058734,-8.251744 0.07436,-7.262053 -0.801963,0.414711 c -0.44108,0.228091 -0.801964,0.35518 -0.801964,0.28242 0,-0.138618 1.454881,-0.939631 1.706653,-0.939631 0.224504,0 0.172002,14.5044 -0.05301,14.64373 -0.10914,0.06758 -0.164976,-3.145047 -0.124078,-7.139177 z m -22.167068,5.605911 c 0,-0.07276 0.357188,-0.317 0.79375,-0.542756 0.436563,-0.225755 0.79375,-0.350932 0.79375,-0.278172 0,0.07276 -0.357187,0.317 -0.79375,0.542756 -0.436562,0.225755 -0.79375,0.350933 -0.79375,0.278172 z"
         id="path32" /><path
         style="fill:#0b3761"
         d="m 38.00408,172.4124 c 0.04911,-0.49729 -0.09119,-0.62329 -0.31259,-0.2807 -0.205335,0.31773 -0.257289,0.32355 -0.260532,0.0292 -0.0022,-0.20224 -0.180788,-0.4999 -0.396798,-0.66146 -0.528783,-0.3955 -0.243745,-1.50896 0.329929,-1.28882 0.285679,0.10963 0.350715,0.0562 0.209591,-0.17213 -0.139713,-0.22606 -0.04857,-0.30816 0.287325,-0.25884 0.830992,0.12203 1.67963,-0.29832 2.575175,-1.27553 1.144489,-1.24885 2.604233,-1.3976 3.647847,-0.37172 0.755666,0.74283 1.103416,1.7939 0.557781,1.68589 -0.179148,-0.0355 -0.520263,0.23243 -0.758034,0.59531 -0.237771,0.36289 -0.600948,0.65979 -0.80706,0.65979 -0.206112,0 -0.447113,0.18858 -0.535557,0.41906 -0.129474,0.33741 -0.2044,0.3503 -0.38452,0.0661 -0.163504,-0.25793 -0.224801,-0.20457 -0.227763,0.1983 -0.0054,0.7291 -0.272844,0.96529 -0.695721,0.61434 -0.190259,-0.1579 -0.496189,-0.18945 -0.685803,-0.0707 -0.388505,0.24327 -2.565704,0.33908 -2.54327,0.11192 z m -4.545924,-3.23522 c 0,-0.16977 -0.07834,-0.23033 -0.174093,-0.13458 -0.09575,0.0958 -0.33236,0.0427 -0.525797,-0.1178 -0.193437,-0.16054 -0.525751,-0.2251 -0.738474,-0.14347 -0.24984,0.0959 -0.338367,0.0223 -0.250051,-0.20787 0.156449,-0.40769 -3.464429,-2.37962 -3.888381,-2.11761 -0.141432,0.0874 -0.224432,0.001 -0.184447,-0.19147 0.03999,-0.19271 -0.130989,-0.33463 -0.379943,-0.31537 -0.248955,0.0193 -0.433725,-0.0403 -0.410601,-0.13229 0.177998,-0.70832 -0.490812,-1.34106 -1.987581,-1.88041 -0.9059,-0.32644 -1.846708,-0.60606 -2.090686,-0.62139 -0.243977,-0.0153 -0.373274,-0.14165 -0.287325,-0.28071 0.08833,-0.14292 -0.03147,-0.18081 -0.275536,-0.0872 -0.237493,0.0911 -0.513545,0.0334 -0.61345,-0.1282 -0.117645,-0.19036 -0.05962,-0.21849 0.164699,-0.0799 0.236065,0.1459 0.282683,0.11105 0.146409,-0.10945 -0.109964,-0.17793 -0.372669,-0.25722 -0.583789,-0.1762 -0.21112,0.081 -0.314804,0.0356 -0.23041,-0.10098 0.203968,-0.33003 -0.847845,-0.87964 -1.230642,-0.64306 -0.197654,0.12216 -0.226113,0.0659 -0.08342,-0.16502 0.158569,-0.25657 0.09497,-0.30376 -0.237445,-0.1762 -0.249711,0.0958 -0.389616,0.07 -0.3109,-0.0573 0.07872,-0.12737 -0.03285,-0.37762 -0.247929,-0.55612 -0.215076,-0.17849 -0.313296,-0.45034 -0.218266,-0.6041 0.107647,-0.17418 0.0068,-0.21588 -0.267497,-0.11062 -0.287482,0.11032 -0.440278,0.0341 -0.440278,-0.21962 0,-0.21372 -0.0893,-0.37447 -0.198438,-0.35724 -0.522675,0.0825 -0.687763,-0.0652 -0.330729,-0.29592 0.258125,-0.16681 0.282649,-0.25789 0.07015,-0.26053 -0.25708,-0.003 -0.326554,-5.72314 -0.325911,-26.8328 7.67e-4,-25.1891 0.02882,-26.8411 0.459019,-27.03079 0.252012,-0.11113 0.551843,-0.21233 0.666292,-0.2249 0.114448,-0.0126 0.303953,-0.17796 0.421121,-0.36755 0.117169,-0.18958 0.380717,-0.30864 0.585662,-0.26458 0.207709,0.0447 0.336746,-0.0861 0.291554,-0.2954 -0.06527,-0.30231 -0.0049,-0.31226 0.309913,-0.051 0.323398,0.2684 0.370543,0.24184 0.272717,-0.15365 -0.08793,-0.35546 0.225881,-0.66647 1.223085,-1.21217 0.823345,-0.45056 1.269983,-0.84951 1.15654,-1.03307 -0.111887,-0.18103 -0.06644,-0.22587 0.115179,-0.11363 0.411669,0.25443 1.427097,-0.32519 1.203504,-0.68697 -0.106401,-0.17216 -0.05988,-0.21759 0.113235,-0.1106 0.161599,0.0999 0.730317,-7.9e-4 1.263817,-0.2237 0.5335,-0.22291 1.282882,-0.409079 1.665292,-0.413707 0.782157,-0.0095 1.58147,-0.516593 1.446327,-0.917627 -0.04904,-0.145521 0.218149,-0.28236 0.59375,-0.304088 0.375601,-0.02173 0.896685,-0.259853 1.157965,-0.529167 0.261279,-0.269314 0.737707,-0.705353 1.058728,-0.968976 0.32102,-0.263624 0.519418,-0.646764 0.440883,-0.851423 -0.07854,-0.204659 -0.01053,-0.453848 0.151117,-0.553753 0.177973,-0.109993 0.219439,-0.06115 0.105121,0.123819 -0.237485,0.384259 -0.09013,0.383949 0.756035,-0.0016 0.37065,-0.168879 0.673908,-0.473562 0.673908,-0.677073 0,-0.203511 0.116602,-0.297956 0.259115,-0.209878 0.343246,0.212137 1.383717,-0.354498 1.199188,-0.653072 -0.07921,-0.128164 -0.0046,-0.31918 0.165762,-0.42448 0.202858,-0.125373 0.238572,-0.07624 0.103474,0.142355 -0.235457,0.380978 0.559817,0.194981 1.747211,-0.408633 0.383143,-0.194772 0.952509,-0.304852 1.265256,-0.244623 0.338455,0.06518 0.552507,-0.01888 0.528797,-0.207663 -0.08683,-0.691366 0.03977,-0.955534 0.392976,-0.819996 0.203562,0.07811 0.449914,0.0129 0.547449,-0.144912 0.09754,-0.157815 0.288172,-0.218437 0.423638,-0.134714 0.135465,0.08372 0.246301,0.02613 0.246301,-0.127976 0,-0.154109 0.164015,-0.280198 0.364478,-0.280198 0.200463,0 0.51161,-0.177283 0.691438,-0.393962 0.179827,-0.216679 0.411177,-0.341912 0.514111,-0.278296 0.102934,0.06362 0.568571,-0.116288 1.034749,-0.399788 0.466178,-0.2835 1.023313,-0.515454 1.238077,-0.515454 0.214764,0 0.360715,-0.09693 0.324334,-0.215398 -0.08544,-0.278241 1.349139,-1.719684 2.124467,-2.134627 0.329147,-0.176154 0.715051,-0.248216 0.857564,-0.160138 0.142513,0.08808 0.259115,-0.01383 0.259115,-0.226464 0,-0.482082 1.455538,-1.073781 2.513542,-1.021796 0.436562,0.02145 0.64418,-0.02727 0.461372,-0.108261 -0.446537,-0.197841 -0.149282,-0.631233 0.43295,-0.631233 0.25642,0 1.038359,-0.548207 1.737642,-1.218238 0.97291,-0.932212 1.324736,-1.134105 1.498491,-0.859896 0.174959,0.27611 0.227997,0.248505 0.231118,-0.120293 0.0026,-0.311989 0.119202,-0.409456 0.334781,-0.279941 0.247919,0.148945 0.244703,0.09251 -0.01285,-0.225413 -0.264826,-0.326899 -0.270617,-0.4692 -0.02526,-0.620836 0.201801,-0.12472 0.249211,-0.08492 0.129524,0.108737 -0.271821,0.439816 0.05088,0.379847 1.35614,-0.252017 0.63338,-0.306614 1.381276,-0.497419 1.66199,-0.424011 0.299578,0.07834 0.486805,0.0081 0.453289,-0.170123 -0.0314,-0.166977 0.121493,-0.303594 0.339774,-0.303594 0.468363,0 0.74328,-0.244312 1.522245,-1.352782 0.318333,-0.452989 0.493009,-0.918562 0.388167,-1.034607 -0.104841,-0.116045 -0.04179,-0.125345 0.140109,-0.02066 0.181901,0.104679 0.330729,0.06797 0.330729,-0.08157 0,-0.149542 0.198126,-0.195866 0.440279,-0.102943 0.257581,0.09884 0.373554,0.06099 0.279479,-0.09123 -0.09646,-0.156072 0.207449,-0.231178 0.759505,-0.187702 0.662968,0.05221 0.86655,-0.01708 0.728065,-0.247805 -0.118849,-0.198009 -0.02134,-0.181653 0.255425,0.04284 0.246215,0.199719 0.449487,0.25925 0.451716,0.132291 0.0022,-0.126958 0.114885,-0.05558 0.25035,0.158626 0.278438,0.440281 0.414224,0.211094 0.622634,-1.050918 0.06008,-0.363802 0.125449,2.456905 0.145266,6.268239 0.02593,4.987137 -0.0496,6.982619 -0.269432,7.118484 -0.177393,0.109635 -0.23408,0.07329 -0.135205,-0.0867 0.09364,-0.151517 -0.01244,-0.427113 -0.235744,-0.612437 -0.223302,-0.185324 -0.333999,-0.526236 -0.245995,-0.757583 0.125271,-0.329313 0.09011,-0.351265 -0.161954,-0.101116 -0.252811,0.250891 -0.241971,0.416591 0.05047,0.771492 0.339846,0.41243 0.30683,0.435633 -0.377341,0.265192 -0.463175,-0.115387 -0.689082,-0.08858 -0.590997,0.07012 0.08733,0.141298 0.03583,0.332891 -0.114438,0.425762 -0.150269,0.09287 -0.204715,0.279692 -0.120993,0.415157 0.143872,0.23279 -0.24884,0.364433 -0.78369,0.262705 -0.133773,-0.02544 -0.07424,0.161905 0.132292,0.416331 0.206534,0.254427 0.241149,0.382118 0.07692,0.28376 -0.371352,-0.222411 -2.007583,0.564376 -1.81654,0.873489 0.07666,0.124044 -1.2e-5,0.31169 -0.170391,0.416989 -0.204639,0.126474 -0.238504,0.07613 -0.09978,-0.148334 0.140856,-0.22791 0.08898,-0.295818 -0.157557,-0.206245 -0.202157,0.07345 -0.347714,0.237724 -0.323461,0.365054 0.02425,0.127331 -0.243637,0.25915 -0.595312,0.292932 -1.467261,0.140944 -1.697743,0.194181 -1.697743,0.39215 0,0.114338 -0.178594,0.207887 -0.396875,0.207887 -0.218282,0 -0.396875,0.119063 -0.396875,0.264583 0,0.145521 -0.15784,0.264584 -0.350755,0.264584 -0.192915,0 -0.636118,0.303755 -0.984895,0.675012 -0.73018,0.77724 -3.850206,2.499988 -4.527668,2.499988 -0.251172,0 -0.612256,0.215255 -0.802409,0.478345 -0.190152,0.263089 -0.913728,0.865807 -1.607947,1.339373 -0.694218,0.473564 -1.19405,0.971314 -1.110737,1.106124 0.08443,0.13662 -0.04947,0.16798 -0.302543,0.0709 -0.332417,-0.12756 -0.396013,-0.0804 -0.237445,0.1762 0.141735,0.22933 0.114154,0.28713 -0.07981,0.16725 -0.163015,-0.10075 -0.77198,0.0595 -1.353257,0.35599 -0.581277,0.29655 -1.289813,0.53918 -1.574526,0.53918 -0.284712,0 -0.559507,0.12554 -0.610655,0.27899 -0.05115,0.15344 -0.294658,0.30859 -0.541131,0.34476 -0.246473,0.0362 -0.674804,0.32713 -0.951845,0.64656 -0.277042,0.31943 -0.873369,0.65472 -1.325172,0.74508 -0.474089,0.0948 -0.888252,0.37473 -0.979411,0.66195 -0.08687,0.27371 -0.333342,0.49766 -0.54771,0.49766 -0.357517,0 -1.355624,0.62077 -2.521975,1.56855 -0.255795,0.20786 -0.393254,0.49414 -0.305464,0.63619 0.0924,0.1495 0.02149,0.1729 -0.168368,0.0556 -0.180393,-0.11149 -0.704805,-0.0184 -1.16536,0.20684 -1.013368,0.49562 -1.804231,0.80127 -2.160289,0.83489 -0.145521,0.0137 -0.58677,0.23917 -0.980553,0.50095 -0.393782,0.26178 -0.838903,0.39999 -0.989156,0.30712 -0.158471,-0.0979 -0.21175,-0.009 -0.12688,0.21244 0.08434,0.21978 -0.225123,0.74863 -0.730635,1.24861 -0.482319,0.47703 -0.649456,0.69859 -0.371416,0.49236 0.476348,-0.35333 0.484746,-0.3416 0.145481,0.20323 -0.198026,0.31801 -0.446168,0.52497 -0.551428,0.45992 -0.313315,-0.19364 -0.366348,3.36703 -0.321466,21.58375 0.05072,20.58504 0.01066,18.80121 0.420323,18.71928 0.192925,-0.0386 0.294886,0.1418 0.244705,0.43293 -0.06634,0.38486 0.03509,0.4674 0.443225,0.36067 0.393109,-0.1028 0.489798,-0.0356 0.375878,0.26128 -0.08663,0.22577 0.03953,0.50764 0.289944,0.64778 0.243823,0.13645 0.374253,0.35983 0.289844,0.49641 -0.140391,0.22716 0.229774,0.36308 0.750214,0.27547 0.116049,-0.0195 0.17558,0.17205 0.132292,0.42575 -0.0871,0.51046 0.390169,0.61875 1.310357,0.29732 0.380839,-0.13304 0.595312,-0.10388 0.595312,0.0809 0,0.16547 0.28258,0.23486 0.661459,0.16244 0.363802,-0.0695 0.661458,-0.0239 0.661458,0.10144 0,0.12535 0.149954,0.2279 0.33323,0.2279 0.183277,0 0.488164,0.24809 0.677528,0.55131 0.195311,0.31274 0.509082,0.48807 0.725103,0.40517 0.209443,-0.0804 0.380806,-0.0238 0.380806,0.12577 0,0.14954 0.148828,0.18625 0.330729,0.0816 0.181901,-0.10468 0.241172,-0.0916 0.131714,0.0291 -0.109458,0.12066 -0.01716,0.42033 0.205113,0.66594 0.359488,0.39723 0.360166,0.48304 0.0061,0.77686 -0.316543,0.2627 -0.336117,0.44644 -0.09565,0.89783 0.253973,0.47674 0.242501,0.52036 -0.07171,0.27265 -0.456394,-0.35979 -1.813608,-0.19525 -2.357197,0.28578 -0.218955,0.19375 -0.824002,0.58889 -1.34455,0.87808 -0.867446,0.48192 -0.971056,0.48968 -1.241212,0.093 -0.252179,-0.37029 -0.297008,-0.33195 -0.31032,0.26539 -0.011,0.49382 -0.149231,0.68745 -0.472198,0.66146 -0.251151,-0.0202 -0.467233,0.14185 -0.480183,0.36013 -0.04176,0.70384 0.184169,0.83723 0.586946,0.34656 0.341324,-0.41581 0.37476,-0.42012 0.253967,-0.0327 -0.07651,0.24537 0.07014,0.72162 0.325876,1.05833 0.313785,0.41313 0.459538,1.06387 0.448237,2.00122 -0.01121,0.92997 0.09054,1.38902 0.307884,1.38906 0.48195,7e-5 1.167854,1.18255 0.975981,1.68256 -0.191144,0.49811 -0.639153,0.58606 -0.639153,0.12547 z m 30.1625,-80.020664 c 0,-0.516815 -0.19774,-0.458677 -0.52598,0.154644 -0.22845,0.426864 -0.205803,0.494735 0.122983,0.368568 0.221649,-0.08505 0.402997,-0.3205 0.402997,-0.523212 z m 1.322917,-6.42314 c 0,-0.622134 -0.134258,-0.788585 -0.727604,-0.902074 -0.400182,-0.07654 -0.906198,-0.03451 -1.124479,0.0934 -0.352778,0.206728 -0.352778,0.233914 0,0.244667 0.352777,0.01075 0.352777,0.04297 0,0.289961 -0.321939,0.225398 -0.29696,0.250752 0.132291,0.13428 0.291042,-0.07897 0.707761,-0.02906 0.926042,0.110908 0.218281,0.13997 0.277813,0.258138 0.132292,0.262595 -0.145521,0.0045 -0.08599,0.123519 0.132291,0.264583 0.540952,0.34959 0.529167,0.360688 0.529167,-0.498322 z M 36.963885,169.0389 c 0.254662,-0.0666 0.671381,-0.0666 0.926042,0 0.254662,0.0665 0.0463,0.121 -0.463021,0.121 -0.509323,0 -0.717682,-0.0545 -0.463021,-0.121 z m 7.717056,-2.49906 c -0.08515,-0.13778 -0.382923,-0.1781 -0.661718,-0.0896 -0.283364,0.0899 -0.5069,0.0363 -0.5069,-0.12153 0,-0.15532 -0.160141,-0.28241 -0.355868,-0.28241 -0.493815,0 -1.127153,-0.78543 -1.333429,-1.65364 -0.09508,-0.40019 -0.285925,-0.72761 -0.424107,-0.72761 -0.138181,0 -0.17521,-0.19812 -0.08229,-0.44028 0.09292,-0.24215 0.05942,-0.37282 -0.07445,-0.29036 -0.133871,0.0824 -0.272782,-0.25123 -0.308692,-0.7415 -0.09301,-1.26988 0.591606,-1.58581 1.907767,-0.88039 0.547849,0.29363 1.167268,0.46818 1.376486,0.3879 0.209218,-0.0803 0.318351,-0.0456 0.242518,0.0771 -0.178639,0.28904 1.019075,1.4198 1.254503,1.18438 0.09834,-0.0984 0.178809,0.0395 0.178809,0.30626 0,0.26678 0.07463,0.41044 0.165837,0.31923 0.179801,-0.1798 1.686246,0.51775 1.686246,0.78081 0,0.0882 -0.234872,0.54044 -0.521939,1.00493 -0.540603,0.87471 -2.241039,1.65493 -2.542776,1.16671 z m 2.140957,-14.2482 c -0.08868,-0.14349 -0.422281,-0.22105 -0.741334,-0.17236 -0.319053,0.0487 -0.8786,0.009 -1.243439,-0.0892 -0.569553,-0.15262 -0.663344,-0.32919 -0.663344,-1.24882 0,-0.712 0.104309,-1.03115 0.311149,-0.95201 0.183012,0.07 0.346452,-0.18834 0.396875,-0.62739 0.05813,-0.50618 0.319922,-0.85817 0.81333,-1.09356 0.400183,-0.19092 0.723818,-0.54899 0.71919,-0.79571 -0.0073,-0.38939 -0.06403,-0.37876 -0.429941,0.0806 -0.41586,0.52205 -0.419636,0.52116 -0.280939,-0.0661 0.07732,-0.32742 0.03769,-0.59531 -0.08807,-0.59531 -0.125763,0 -0.542649,-0.53578 -0.926413,-1.19063 -0.383764,-0.65484 -0.812528,-1.19062 -0.95281,-1.19062 -0.140281,0 -0.168967,-0.1393 -0.06375,-0.30955 0.128635,-0.20813 0.04707,-0.25419 -0.248968,-0.14059 -0.287482,0.11031 -0.440279,0.0341 -0.440279,-0.21962 0,-0.21372 -0.105176,-0.38858 -0.233724,-0.38858 -0.128549,0 -0.299803,-0.20835 -0.380564,-0.46302 -0.08076,-0.25466 -0.350787,-0.8202 -0.600056,-1.25677 -0.78169,-1.36902 -0.860271,-1.62456 -0.617509,-2.00805 0.129938,-0.20526 0.23625,-0.49226 0.23625,-0.63778 0,-0.14552 -0.1,-0.10686 -0.222219,0.0859 -0.146003,0.23029 -0.329985,-0.19727 -0.536432,-1.24661 -0.338301,-1.71955 -0.324527,-3.78568 0.0238,-3.57041 0.117583,0.0727 0.213787,-0.11302 0.213787,-0.41265 0,-0.29963 0.115325,-0.54478 0.256279,-0.54478 0.140954,0 0.187747,-0.1786 0.103984,-0.39688 -0.09644,-0.25131 0.0037,-0.39687 0.272887,-0.39687 0.516696,0 0.516035,0.0175 0.04218,-1.11663 -0.377679,-0.90391 -0.307462,-1.88615 0.179416,-2.5098 0.137031,-0.17553 0.170516,-0.44637 0.07441,-0.60187 -0.09611,-0.1555 -0.0644,-0.25001 0.07046,-0.21003 0.13486,0.04 0.655042,-0.46308 1.155959,-1.11792 0.500917,-0.65485 1.173333,-1.22867 1.494257,-1.27517 0.320924,-0.0465 0.583499,-0.20236 0.583499,-0.34635 0,-0.14399 0.139296,-0.17571 0.309546,-0.0705 0.209308,0.12936 0.253784,0.046 0.137346,-0.25743 -0.123455,-0.32172 0.01562,-0.52016 0.491306,-0.70102 0.667417,-0.25375 1.238647,-1.24461 0.974231,-1.6899 -0.07816,-0.13163 -0.0071,-0.15589 0.157889,-0.0539 0.411669,0.25442 1.427097,-0.32519 1.203504,-0.68697 -0.103491,-0.16745 -0.06037,-0.2179 0.101004,-0.11816 0.37216,0.23001 1.160947,-0.0816 0.973664,-0.38458 -0.169163,-0.27371 -0.181296,-0.27129 1.736927,-0.3468 0.800364,-0.0315 1.679339,-0.15751 1.953277,-0.28001 0.303145,-0.13556 0.687616,-0.10435 0.982398,0.0797 0.39546,0.24697 0.456657,0.23036 0.333519,-0.0905 -0.106002,-0.27624 0.03448,-0.39956 0.472811,-0.41505 0.342991,-0.0121 0.921276,-0.0593 1.285078,-0.1049 1.664997,-0.20853 2.551073,-0.22743 2.821665,-0.0602 0.161357,0.0997 0.440508,0.004 0.620336,-0.21264 0.280482,-0.33796 0.162511,-0.3996 -0.829917,-0.43361 -0.852109,-0.0292 -0.955865,-0.0696 -0.393849,-0.15328 1.16852,-0.17404 4.011464,0.40453 6.272683,1.27655 5.366497,2.06954 9.281923,6.22586 10.555295,11.20469 0.913122,3.57028 0.606319,6.5858 -1.024429,10.06898 -0.808951,1.72787 -3.108283,4.72128 -3.459722,4.50408 -0.120091,-0.0742 -0.661612,0.0503 -1.203381,0.27663 -0.54177,0.22636 -1.155915,0.346 -1.364767,0.26586 -0.224215,-0.086 -0.30905,-0.0314 -0.207146,0.13353 0.09492,0.15358 0.01181,0.25189 -0.184696,0.21845 -0.196504,-0.0334 -0.691314,0.0327 -1.099578,0.14697 -0.5747,0.16085 -0.724396,0.34436 -0.663011,0.81279 0.08685,0.66277 -1.06882,1.9451 -1.594933,1.76973 -0.168878,-0.0563 -0.30705,0.0155 -0.30705,0.15951 0,0.14403 -0.256743,0.19472 -0.57054,0.11266 -0.313797,-0.0821 -0.504429,-0.0411 -0.423626,0.0909 0.08478,0.13856 -1.352447,0.25312 -3.39821,0.27085 -1.949818,0.0169 -3.545356,-0.0426 -3.54564,-0.13229 -2.84e-4,-0.0897 -0.565831,-0.15834 -1.256771,-0.15261 -0.69094,0.006 -1.775051,-0.1353 -2.409135,-0.31339 -0.68586,-0.19263 -1.38253,-0.23514 -1.719792,-0.10494 -0.818551,0.316 -2.564387,1.76183 -2.366436,1.95978 0.181951,0.18195 -0.290014,0.25969 -1.073668,0.17686 -0.293659,-0.031 -0.420669,0.0633 -0.315114,0.23412 0.09726,0.15736 0.117297,0.28611 0.04454,0.28611 -0.07276,0 -0.204849,-0.1174 -0.29353,-0.26089 z M 73.4272,142.73913 c 0.581504,-0.81665 0.581566,-0.81817 0.05478,-1.34495 -0.460771,-0.46077 -0.547685,-0.47447 -0.688132,-0.10847 -0.08841,0.2304 -0.0384,0.4189 0.111144,0.4189 0.149542,0 0.207192,0.1047 0.128111,0.23265 -0.205567,0.33262 -1.210363,0.55821 -1.210363,0.27175 0,-0.1319 0.167447,-0.23981 0.372105,-0.23981 0.237397,0 0.323742,-0.18494 0.238512,-0.51086 -0.119144,-0.45561 -0.895309,-0.51075 -0.835503,-0.0594 0.01263,0.0953 0.007,0.53053 -0.01242,0.96709 -0.02743,0.61524 -0.09307,0.70449 -0.291864,0.39688 -0.154109,-0.23847 -0.258097,-0.2711 -0.260532,-0.0818 -0.0063,0.49237 0.559732,0.71844 0.805047,0.32151 0.176367,-0.28537 0.255931,-0.26558 0.395601,0.0984 0.250485,0.65276 0.531697,0.56747 1.193511,-0.36196 z M 59.824534,138.6522 c 0.08171,-0.21294 0.344192,-0.38741 0.583284,-0.38769 0.294081,-3.6e-4 0.452666,-0.25714 0.490208,-0.79375 0.03052,-0.43628 -0.05878,-0.79323 -0.198438,-0.79323 -0.139662,0 -0.2623,-0.26789 -0.272528,-0.59531 -0.01784,-0.57121 -0.02848,-0.57389 -0.262751,-0.0661 -0.182061,0.39459 -0.227313,0.20955 -0.177934,-0.7276 0.05477,-1.03941 -0.01276,-1.25677 -0.390404,-1.25677 -0.324596,0 -0.40645,-0.13388 -0.283098,-0.46302 0.153983,-0.41088 0.121567,-0.42073 -0.287816,-0.0875 -0.377396,0.30719 -0.446589,0.31005 -0.380267,0.0157 0.09567,-0.42458 -0.839234,-0.69541 -1.077846,-0.31224 -0.0902,0.14484 -0.461652,0.30538 -0.825454,0.35676 -0.704317,0.0995 -1.322917,0.5531 -1.322917,0.97013 0,0.49835 -1.327024,1.14248 -1.93029,0.93695 -0.320788,-0.1093 -0.655475,-0.18082 -0.743748,-0.15894 -0.08827,0.0219 -0.301302,-0.22333 -0.473397,-0.54489 -0.472813,-0.88346 -2.05351,-1.8544 -2.976255,-1.82817 -1.622907,0.0461 -3.40131,0.65539 -3.40131,1.16523 0,0.26353 0.112217,0.47914 0.24937,0.47914 0.137154,0 0.285982,0.50602 0.330729,1.12448 0.05524,0.76355 0.19383,1.10115 0.431755,1.05178 0.192717,-0.04 0.276508,0.0469 0.186202,0.19297 -0.279962,0.45299 0.339352,1.26571 1.19064,1.56247 0.836257,0.29152 2.276478,0.144 2.525343,-0.25867 0.07729,-0.12506 -0.07401,-0.15798 -0.336235,-0.0732 -0.373474,0.12081 -0.39598,0.0968 -0.103881,-0.11084 0.205085,-0.14579 0.541439,-0.20039 0.747452,-0.12133 0.254847,0.0978 0.347085,-0.0138 0.288577,-0.34927 -0.0473,-0.27116 0.03307,-0.50418 0.17859,-0.51783 0.14552,-0.0137 0.603429,-0.18946 1.017575,-0.3907 0.668711,-0.32493 0.78125,-0.31539 1.00547,0.0853 0.719292,1.2853 5.853156,2.85052 6.219374,1.89617 z m 7.235706,0.0854 c 0,-0.11437 0.152625,-0.20795 0.339167,-0.20795 0.186542,0 0.364449,-0.30547 0.395349,-0.67883 0.0309,-0.37335 0.235462,-0.85811 0.454583,-1.07723 0.21912,-0.21912 0.398401,-0.56849 0.398401,-0.77638 0,-0.20788 0.125814,-0.37797 0.279586,-0.37797 0.15671,0 0.09857,-0.25844 -0.132292,-0.58804 -0.226533,-0.32342 -0.411878,-0.98529 -0.411878,-1.47082 0,-0.58033 -0.100784,-0.8205 -0.294164,-0.70098 -0.161791,0.1 -0.398093,0.0177 -0.525115,-0.18283 -0.179357,-0.28317 -0.231856,-0.25395 -0.235002,0.13079 -0.003,0.36609 -0.09039,0.42381 -0.334781,0.22109 -0.373331,-0.30966 -3.285509,-0.24213 -3.579308,0.083 -0.105052,0.11626 -0.02378,0.11436 0.180605,-0.004 0.249992,-0.14504 0.309824,-0.11563 0.182822,0.0899 -0.103832,0.168 -0.397128,0.30546 -0.651769,0.30546 -0.25464,0 -0.635992,0.14883 -0.847448,0.33073 -0.211457,0.1819 -0.335547,0.30308 -0.275755,0.26928 0.05979,-0.0338 0.394078,0.26386 0.742857,0.66146 0.462237,0.52694 0.596086,0.92371 0.493752,1.46366 -0.07722,0.40742 -0.03423,0.67515 0.09553,0.59495 0.129759,-0.0802 0.170424,0.10467 0.09037,0.4108 -0.08532,0.32627 0.007,0.65323 0.223112,0.79007 0.286377,0.18134 0.29136,0.23435 0.02233,0.2375 -0.190489,0.002 -0.282682,0.10706 -0.204872,0.23296 0.07781,0.1259 0.442024,0.19591 0.809365,0.15559 0.367341,-0.0403 0.667893,0.0153 0.667893,0.12355 0,0.10828 0.47625,0.19137 1.058333,0.18464 0.582084,-0.007 1.058334,-0.1058 1.058334,-0.22016 z m 8.462615,-2.39076 c -0.0022,-0.32742 -0.105644,-0.75561 -0.229812,-0.95154 -0.165473,-0.2611 -0.302867,-0.13504 -0.51451,0.47208 -0.1671,0.47935 -0.18175,0.76218 -0.03477,0.67135 0.139688,-0.0863 0.253979,-0.0309 0.253979,0.12323 0,0.15411 0.119062,0.28019 0.264583,0.28019 0.145521,0 0.26276,-0.26789 0.260532,-0.59531 z m -31.849933,-3.52737 c -0.08833,-0.23018 -0.160599,-0.52784 -0.160599,-0.66146 0,-0.13361 -0.102552,-0.24294 -0.227893,-0.24294 -0.125341,0 -0.170993,0.29766 -0.101447,0.66146 0.06954,0.3638 0.244366,0.66146 0.388492,0.66146 0.144125,0 0.189777,-0.18833 0.101447,-0.41852 z m -14.586989,-0.50752 c -2.2e-5,-10.91407 0.03266,-15.41748 0.07262,-10.00759 0.03997,5.4099 0.03999,14.33958 4.1e-5,19.84375 -0.03994,5.50417 -0.07264,1.0779 -0.07267,-9.83616 z m 28.250869,18.9999 c 0.254662,-0.0666 0.67138,-0.0666 0.926042,0 0.254661,0.0665 0.0463,0.121 -0.463021,0.121 -0.509323,0 -0.717682,-0.0545 -0.463021,-0.121 z"
         id="path31" /><path
         style="fill:#0c355a"
         d="m 40.841297,174.27138 c -2.230818,-1.36415 -3.149807,-2.00559 -3.149807,-2.19854 0,-0.11986 0.26902,-0.0417 0.597823,0.17378 0.605889,0.397 1.664989,0.41761 2.26923,0.0442 0.18212,-0.11256 0.485694,-0.0764 0.67461,0.0804 0.422877,0.35095 0.690362,0.11476 0.695721,-0.61434 0.003,-0.40287 0.06426,-0.45623 0.227763,-0.1983 0.18012,0.28415 0.255046,0.27126 0.38452,-0.0661 0.08844,-0.23048 0.313373,-0.41906 0.499841,-0.41906 0.344252,-1e-5 1.794242,-1.64637 1.794242,-2.03724 0,-0.11739 -0.328881,-0.52384 -0.730847,-0.90323 -1.081611,-1.02087 -2.526468,-0.87466 -3.668213,0.3712 -0.895545,0.97721 -1.744183,1.39756 -2.575175,1.27553 -0.335898,-0.0493 -0.427038,0.0328 -0.287325,0.25884 0.141124,0.22835 0.07609,0.28176 -0.209591,0.17213 -0.608457,-0.23348 -0.850866,0.89941 -0.283098,1.32306 0.989503,0.73833 0.107041,0.48931 -1.373876,-0.38769 -0.873125,-0.51707 -1.944688,-1.14577 -2.38125,-1.39712 -1.291665,-0.74367 -7.494164,-4.47019 -9.921875,-5.96115 -1.236928,-0.75965 -3.231224,-1.94752 -4.431771,-2.63971 l -2.182813,-1.25854 v -27.56424 -27.56424 l 0.859896,-0.45699 c 1.180148,-0.62719 2.480691,-1.38454 8.003646,-4.66081 6.650547,-3.945167 7.805208,-4.580124 7.805208,-4.292146 0,0.138546 -0.353228,0.398214 -0.784951,0.57704 -0.431724,0.178825 -0.856466,0.550457 -0.943872,0.825849 -0.08741,0.275391 -0.253723,0.500712 -0.369594,0.500712 -0.11587,0 -0.520683,0.310009 -0.899584,0.68891 -0.378901,0.378901 -0.990356,0.706323 -1.358789,0.727604 -0.368433,0.02128 -0.629756,0.157756 -0.580717,0.303277 0.141553,0.420057 -0.678862,0.908294 -1.544784,0.919316 -0.746949,0.0095 -2.147107,0.665688 -5.377764,2.520268 -1.024282,0.588 -1.352044,0.91769 -1.264431,1.27189 0.09783,0.39549 0.05068,0.42205 -0.272717,0.15365 -0.314765,-0.26123 -0.375183,-0.25128 -0.309913,0.051 0.04519,0.20932 -0.08385,0.34006 -0.291554,0.2954 -0.204945,-0.0441 -0.468493,0.075 -0.585662,0.26458 -0.117168,0.18959 -0.306673,0.35498 -0.421121,0.36755 -0.114449,0.0126 -0.41428,0.11377 -0.666292,0.2249 -0.430199,0.18969 -0.458252,1.84169 -0.459019,27.03079 -6.43e-4,21.10966 0.06883,26.82961 0.325911,26.8328 0.212502,0.003 0.187978,0.0937 -0.07015,0.26053 -0.357034,0.23074 -0.191946,0.37845 0.330729,0.29592 0.109141,-0.0172 0.198438,0.14352 0.198438,0.35724 0,0.25372 0.152796,0.32994 0.440278,0.21962 0.274305,-0.10526 0.375144,-0.0636 0.267497,0.11062 -0.09503,0.15376 0.01601,0.43625 0.246764,0.62776 1.020143,0.84664 4.745769,2.85964 6.054383,3.27124 0.908712,0.28583 1.493138,0.63314 1.592572,0.94643 0.172385,0.54313 0.993868,1.09785 3.503193,2.36555 0.909506,0.45948 1.653646,0.93295 1.653646,1.05216 0,0.21397 1.004059,0.62718 1.389063,0.57166 0.10914,-0.0157 0.198437,0.0905 0.198437,0.23597 0,0.42552 0.45736,0.30417 0.639153,-0.16957 0.191873,-0.50001 -0.494031,-1.68249 -0.975981,-1.68256 -0.217347,-4e-5 -0.319096,-0.45909 -0.307884,-1.38906 0.0113,-0.93735 -0.134452,-1.58809 -0.448237,-2.00122 -0.255741,-0.33671 -0.402385,-0.81296 -0.325876,-1.05833 0.120793,-0.3874 0.08736,-0.38309 -0.253967,0.0327 -0.402777,0.49067 -0.628702,0.35728 -0.586946,-0.34656 0.01295,-0.21828 0.229032,-0.38034 0.480183,-0.36013 0.322967,0.026 0.461193,-0.16764 0.472198,-0.66146 0.01331,-0.59734 0.05814,-0.63568 0.31032,-0.26539 0.270156,0.39668 0.373766,0.38892 1.241212,-0.093 0.520548,-0.28919 1.125595,-0.68433 1.34455,-0.87808 0.543589,-0.48103 1.900803,-0.64557 2.357197,-0.28578 0.314207,0.24771 0.325679,0.20409 0.07171,-0.27265 -0.240701,-0.45182 -0.220764,-0.63523 0.09779,-0.89961 0.351871,-0.29202 0.327267,-0.41231 -0.203997,-0.9973 -0.555416,-0.61158 -0.476128,-0.59318 0.983374,0.22825 0.873125,0.49141 3.42714,1.99731 5.675589,3.34645 2.248449,1.34914 4.191152,2.48733 4.317117,2.52932 0.125966,0.042 -1.356487,2.4653 -3.294339,5.38514 l -3.523367,5.3088 z m -1.824822,-5.47867 c 1.413232,-0.56547 2.372142,-2.14971 2.397088,-3.9603 0.01589,-1.15294 0.0488,-1.22499 0.291583,-0.63821 0.521285,1.25992 0.662508,1.45642 1.233506,1.71638 0.315519,0.14365 0.573671,0.36003 0.573671,0.48085 0,0.12082 0.228105,0.14728 0.5069,0.0588 0.278795,-0.0885 0.576568,-0.0482 0.661718,0.0896 0.301737,0.48822 2.002173,-0.292 2.542776,-1.16671 0.287067,-0.46449 0.521939,-0.9167 0.521939,-1.00493 0,-0.26306 -1.506445,-0.96061 -1.686246,-0.78081 -0.09121,0.0912 -0.165837,-0.0524 -0.165837,-0.31923 0,-0.26679 -0.08046,-0.40461 -0.178809,-0.30626 -0.09835,0.0983 -0.446836,-0.073 -0.774425,-0.38075 -0.327589,-0.30775 -1.166488,-0.83469 -1.864219,-1.17096 -1.949462,-0.93956 -2.60647,-0.3608 -1.797062,1.58303 0.118818,0.28535 -0.230913,0.0241 -0.77718,-0.58055 -1.159271,-1.28318 -2.367171,-1.76307 -3.786097,-1.50419 -2.943809,0.53708 -4.459127,3.90075 -2.834407,6.29174 0.70102,1.03164 2.378025,2.00446 3.474032,2.01525 0.324477,0.003 1.071958,-0.18705 1.661069,-0.42276 z m -7.501967,-12.98035 c -0.07511,-0.0751 -0.07062,-0.30839 0.01,-0.51839 0.08059,-0.21001 0.04262,-0.36286 -0.08438,-0.33968 -0.543424,0.0992 -0.911547,-0.04 -0.758909,-0.28696 0.09057,-0.14655 -0.02146,-0.33788 -0.248968,-0.42518 -0.227505,-0.0873 -0.413645,-0.32459 -0.413645,-0.5273 0,-0.20271 -0.178594,-0.36857 -0.396875,-0.36857 -0.218281,0 -0.396875,-0.11906 -0.396875,-0.26458 0,-0.37842 -0.03991,-0.39541 2.541721,1.08229 2.763169,1.58161 3.069762,1.82812 2.273696,1.82812 -0.320146,0 -0.582084,-0.12608 -0.582084,-0.28019 0,-0.15411 -0.09764,-0.21986 -0.216977,-0.1461 -0.354644,0.21918 -1.579184,0.39402 -1.726671,0.24654 z m 11.367196,-3.16379 c 0.23413,-0.56215 0.646935,-1.45704 0.917344,-1.98866 0.27041,-0.53162 0.600294,-1.65937 0.733076,-2.50612 l 0.241422,-1.53953 -1.158769,-1.32464 c -5.239317,-5.98933 -4.999378,-14.73042 0.559004,-20.36482 1.485427,-1.50575 4.544177,-3.59872 5.244484,-3.58859 0.171471,0.002 -0.277951,0.35165 -0.998717,0.77593 -0.720766,0.42427 -1.402179,1.01929 -1.514252,1.32225 -0.112072,0.30296 -0.502346,0.66436 -0.867275,0.8031 -0.475684,0.18086 -0.614761,0.3793 -0.491306,0.70102 0.116438,0.30343 0.07196,0.38679 -0.137346,0.25743 -0.17025,-0.10522 -0.309546,-0.0652 -0.309546,0.0889 0,0.15411 -0.217371,0.2802 -0.483046,0.2802 -0.549578,0 -1.204657,0.66493 -2.345977,2.38125 -1.03952,1.56324 -1.192376,2.27224 -0.728984,3.38129 0.473859,1.13411 0.47452,1.11663 -0.04218,1.11663 -0.269237,0 -0.369325,0.14556 -0.272887,0.39687 0.08376,0.21828 0.03697,0.39688 -0.103984,0.39688 -0.140954,0 -0.256279,0.24515 -0.256279,0.54478 0,0.29963 -0.0962,0.48532 -0.213787,0.41265 -0.348328,-0.21527 -0.362102,1.85086 -0.0238,3.57041 0.206447,1.04934 0.390429,1.4769 0.536432,1.24661 0.122221,-0.19277 0.222219,-0.23143 0.222219,-0.0859 0,0.14552 -0.106312,0.43252 -0.23625,0.63778 -0.242762,0.38349 -0.164181,0.63903 0.617509,2.00805 0.249269,0.43657 0.519294,1.00211 0.600056,1.25677 0.08076,0.25467 0.252015,0.46302 0.380564,0.46302 0.128548,0 0.233724,0.17486 0.233724,0.38858 0,0.25371 0.152797,0.32993 0.440279,0.21962 0.296039,-0.1136 0.377603,-0.0675 0.248968,0.14059 -0.10522,0.17025 -0.07653,0.30955 0.06375,0.30955 0.140282,0 0.569046,0.53578 0.95281,1.19062 0.383764,0.65485 0.80065,1.19063 0.926413,1.19063 0.125763,0 0.165395,0.26789 0.08807,0.59531 -0.138697,0.58731 -0.134921,0.5882 0.280939,0.0661 0.365909,-0.45935 0.422637,-0.46998 0.429941,-0.0806 0.0046,0.24672 -0.319007,0.60503 -0.71919,0.79623 -0.445806,0.213 -0.763552,0.60287 -0.820424,1.00663 -0.05105,0.36244 -0.184921,0.71851 -0.297489,0.79127 -0.112568,0.0728 -0.28864,0.51934 -0.391271,0.9924 -0.144213,0.66473 -0.08958,0.89735 0.240502,1.02401 0.696082,0.26712 2.343747,0.28634 3.05462,0.0357 1.130691,-0.39875 0.220778,0.20599 -1.190625,0.7913 -0.727604,0.30174 -1.888008,0.63231 -2.578676,0.7346 l -1.255759,0.18598 z m -14.209132,-0.82364 c -0.110265,-3.4756 -0.07506,-36.13469 0.04071,-37.76927 0.08245,-1.16417 0.171752,7.02138 0.198437,18.1901 0.02669,11.16872 -0.01101,20.30677 -0.08377,20.30677 -0.07276,0 -0.142679,-0.32742 -0.155377,-0.7276 z m 20.558057,-0.88828 c 1.452559,-1.16102 1.981996,-1.31051 3.315272,-0.93605 0.634084,0.17809 1.718195,0.31911 2.409135,0.31339 0.69094,-0.006 1.256487,0.0707 1.256771,0.1698 5.48e-4,0.19131 5.670225,0.0476 7.011974,-0.17772 0.672371,-0.11291 0.631911,-0.0663 -0.264583,0.30452 -1.597215,0.66075 -7.902544,0.65902 -10.069384,-0.003 l -1.602717,-0.48949 -1.293354,0.82022 c -1.665228,1.05606 -2.085421,1.055 -0.763114,-0.002 z m 16.242111,-1.55059 c 0.448778,-0.34526 0.635466,-0.71578 0.580619,-1.15237 -0.06416,-0.51075 0.07229,-0.68636 0.661458,-0.85126 0.408264,-0.11427 0.903074,-0.18041 1.099578,-0.14697 0.196505,0.0334 0.279618,-0.0649 0.184696,-0.21845 -0.101904,-0.16489 -0.01707,-0.21957 0.207146,-0.13353 0.208852,0.0801 0.82863,-0.0418 1.377283,-0.27109 0.548653,-0.22924 1.044928,-0.36943 1.102832,-0.31152 0.207251,0.20725 -1.919349,1.76456 -3.655276,2.67676 -1.953701,1.02665 -2.572856,1.18892 -1.558336,0.40843 z m 6.760949,-6.28497 c -0.13967,-0.36397 -0.219234,-0.38376 -0.395601,-0.0984 -0.245315,0.39693 -0.811377,0.17086 -0.805047,-0.32151 0.0024,-0.18934 0.106423,-0.15671 0.260532,0.0818 0.198797,0.30761 0.264438,0.21836 0.291864,-0.39688 0.01946,-0.43656 0.02505,-0.87175 0.01242,-0.96709 -0.05981,-0.45139 0.716359,-0.39625 0.835503,0.0594 0.08523,0.32592 -0.0011,0.51086 -0.238512,0.51086 -0.204658,0 -0.372105,0.10791 -0.372105,0.23981 0,0.28646 1.004796,0.0609 1.210363,-0.27175 0.07908,-0.12795 0.02143,-0.23265 -0.128111,-0.23265 -0.149542,0 -0.199557,-0.1885 -0.111144,-0.4189 0.140447,-0.366 0.227361,-0.3523 0.688132,0.10847 0.526786,0.52678 0.526724,0.5283 -0.05478,1.34495 -0.661814,0.92943 -0.943026,1.01472 -1.193511,0.36196 z M 57.04791,138.6247 c -1.490479,-0.46474 -3.226736,-1.40052 -3.390539,-1.82738 -0.244363,-0.6368 -0.847289,-0.4399 -1.97703,0.64566 -1.199599,1.15268 -2.202729,1.46628 -3.378811,1.0563 -0.97433,-0.33965 -1.87879,-1.79711 -1.87879,-3.0275 0,-0.501 -0.119063,-0.91092 -0.264584,-0.91092 -0.145521,0 -0.264583,-0.21561 -0.264583,-0.47914 0,-0.50984 1.778403,-1.11908 3.40131,-1.16523 0.922745,-0.0262 2.503442,0.94471 2.976255,1.82817 0.172095,0.32156 0.385123,0.56676 0.473397,0.54489 0.08827,-0.0219 0.440372,0.0552 0.782443,0.17122 0.379764,0.12883 0.735207,0.0977 0.912812,-0.0799 0.485225,-0.48523 0.7142,-0.33051 0.7142,0.48258 0,1.18723 1.157848,2.40155 2.289872,2.40155 1.304717,0 1.915359,-0.41088 2.48931,-1.67499 0.373553,-0.82274 0.50234,-0.95182 0.506674,-0.50782 0.0032,0.32742 0.12008,0.59531 0.259742,0.59531 0.139663,0 0.22896,0.35695 0.198438,0.79323 -0.03754,0.53661 -0.196127,0.79339 -0.490208,0.79375 -0.239092,2.8e-4 -0.50157,0.17475 -0.583284,0.38769 -0.170824,0.44516 -1.296495,0.43401 -2.776624,-0.0275 z m -5.945869,-0.93496 c 0.858906,-0.8069 0.84859,-2.56016 -0.02101,-3.57113 -0.506311,-0.58862 -0.856965,-0.73634 -1.747873,-0.73634 -0.890908,0 -1.241562,0.14772 -1.747872,0.73634 -0.876139,1.01857 -0.868823,2.61211 0.01605,3.49699 0.866918,0.86692 2.617371,0.90399 3.500703,0.0741 z m 13.841532,1.08334 c 0,-0.10828 -0.300552,-0.16388 -0.667893,-0.12355 -0.367341,0.0403 -0.731556,-0.0297 -0.809365,-0.15559 -0.07781,-0.1259 0.01438,-0.23073 0.204872,-0.23296 0.234557,-0.003 0.252746,-0.0668 0.05635,-0.19844 -0.159495,-0.10691 -0.374494,-0.55157 -0.477775,-0.98813 l -0.187785,-0.79375 0.465633,0.66145 c 0.256098,0.36381 0.649691,0.8065 0.87465,0.98378 0.572411,0.45107 2.164881,0.41673 2.847521,-0.0614 0.530439,-0.37154 0.568964,-0.36195 0.531734,0.13229 -0.02208,0.29306 -0.193395,0.53284 -0.380709,0.53284 -0.187314,0 -0.34057,0.0936 -0.34057,0.20795 0,0.11436 -0.47625,0.21344 -1.058334,0.22016 -0.582083,0.007 -1.058333,-0.0764 -1.058333,-0.18464 z m 3.271853,-2.84082 c -0.03276,-1.24925 -0.520936,-1.94783 -1.703481,-2.43765 -1.007514,-0.41733 -2.240541,0.0598 -2.882476,1.11537 l -0.45777,0.75274 -0.48788,-0.64967 c -0.268334,-0.35731 -0.613803,-0.58843 -0.767709,-0.5136 -0.153906,0.0748 -0.04871,-0.0514 0.233762,-0.28042 0.282475,-0.22908 0.721932,-0.4165 0.976572,-0.4165 0.254641,0 0.547937,-0.13746 0.651769,-0.30546 0.127002,-0.2055 0.06717,-0.23491 -0.182822,-0.0899 -0.204385,0.11857 -0.285657,0.12047 -0.180605,0.004 0.293799,-0.32513 3.205977,-0.39266 3.579308,-0.083 0.244393,0.20272 0.331787,0.145 0.334781,-0.22109 0.0031,-0.38474 0.05564,-0.41396 0.235002,-0.13079 0.127022,0.20055 0.363324,0.28282 0.525115,0.18283 0.19338,-0.11952 0.294164,0.12065 0.294164,0.70098 0,0.48553 0.185345,1.1474 0.411878,1.47082 0.226533,0.32342 0.309048,0.58804 0.183368,0.58804 -0.125681,0 -0.342141,0.3231 -0.481021,0.71801 -0.236271,0.67183 -0.254404,0.64579 -0.281955,-0.40495 z m 6.782314,0.72966 c 0,-0.15411 -0.114291,-0.20957 -0.253979,-0.12323 -0.146978,0.0908 -0.132328,-0.192 0.03477,-0.67135 0.211643,-0.60712 0.349037,-0.73318 0.51451,-0.47208 0.312185,0.4926 0.291247,1.54685 -0.03072,1.54685 -0.145521,0 -0.264583,-0.12608 -0.264583,-0.28019 z m -16.801042,-3.28213 c -0.690103,-0.31599 -0.718053,-0.36625 -0.214052,-0.38494 0.318833,-0.0118 0.654482,0.0995 0.745886,0.24741 0.0914,0.1479 0.277024,0.2004 0.41249,0.11668 0.135466,-0.0837 0.246301,-0.0261 0.246301,0.12798 0,0.35916 -0.214418,0.33987 -1.190625,-0.10713 z m -15.013715,-0.8033 c -0.06955,-0.3638 -0.02389,-0.66146 0.101447,-0.66146 0.125341,0 0.227893,0.10933 0.227893,0.24294 0,0.13362 0.07227,0.43128 0.160599,0.66146 0.08833,0.23019 0.04268,0.41852 -0.101447,0.41852 -0.144126,0 -0.318947,-0.29766 -0.388492,-0.66146 z m 7.68917,-11.94598 c 1.821731,-0.77446 3.943322,-1.1509 6.486489,-1.1509 2.292618,0 2.581498,0.0496 2.295682,0.39397 -0.179828,0.21668 -0.458979,0.31237 -0.620336,0.21264 -0.270592,-0.16723 -1.156668,-0.14833 -2.821665,0.0602 -0.363802,0.0456 -0.942087,0.0928 -1.285078,0.1049 -0.438335,0.0155 -0.578813,0.13881 -0.472811,0.41505 0.123138,0.32089 0.06194,0.3375 -0.333519,0.0905 -0.289087,-0.18054 -0.685109,-0.21498 -0.982398,-0.0854 -0.273938,0.11936 -1.093382,0.24292 -1.820986,0.27457 l -1.322916,0.0576 z m -21.167262,-9.62972 c 0.508918,-0.48764 0.815543,-1.00029 0.730635,-1.22155 -0.08487,-0.22117 -0.03159,-0.31038 0.12688,-0.21244 0.150253,0.0929 0.595374,-0.0461 0.989156,-0.30886 0.393783,-0.26274 0.876746,-0.44364 1.07325,-0.40199 0.196504,0.0416 0.294385,-0.026 0.217512,-0.15043 -0.07687,-0.12438 0.154545,-0.25051 0.514262,-0.28028 0.598358,-0.0495 2.964121,-1.21159 3.27657,-1.60946 0.326071,-0.41521 1.868125,-1.35908 2.220415,-1.35908 0.214368,0 0.460837,-0.22395 0.54771,-0.49766 0.09116,-0.28722 0.505322,-0.56714 0.979411,-0.66195 0.451803,-0.0904 1.04813,-0.42565 1.325172,-0.74508 0.277041,-0.31943 0.705372,-0.61038 0.951845,-0.64656 0.246473,-0.0362 0.489982,-0.19132 0.541131,-0.34476 0.05115,-0.15345 0.325158,-0.27899 0.608911,-0.27899 1.047847,0 5.43583,-2.635212 6.268012,-3.764267 0.190153,-0.257988 0.551237,-0.469068 0.802409,-0.469068 0.677462,0 3.797488,-1.722748 4.527668,-2.499988 0.348777,-0.371257 0.79198,-0.675012 0.984895,-0.675012 0.192915,0 0.350755,-0.119063 0.350755,-0.264584 0,-0.14552 0.178593,-0.264583 0.396875,-0.264583 0.218281,0 0.396875,-0.126089 0.396875,-0.280198 0,-0.154109 0.115205,-0.208998 0.256011,-0.121975 0.41971,0.259395 4.567597,-1.930733 4.34346,-2.293393 -0.07749,-0.125379 -0.04274,-0.210912 0.07722,-0.190074 0.522032,0.09068 0.898914,-0.044 0.75857,-0.271078 -0.08372,-0.135465 -0.02928,-0.322286 0.120993,-0.415157 0.150268,-0.09287 0.201765,-0.284464 0.114438,-0.425762 -0.09808,-0.158705 0.127822,-0.185509 0.590997,-0.07012 0.684171,0.170441 0.717187,0.147238 0.377341,-0.265192 -0.305735,-0.371033 -0.310629,-0.509197 -0.02733,-0.771492 0.27201,-0.251842 0.303372,-0.245936 0.148076,0.02789 -0.112471,0.198312 -0.006,0.55846 0.248045,0.8392 0.500367,0.552899 0.622422,0.436869 -2.113025,2.008727 -1.876806,1.07846 -2.404991,1.390688 -5.053041,2.987015 -1.295411,0.780914 -3.426855,2.04524 -4.736542,2.809613 -1.309688,0.764374 -4.167188,2.457798 -6.35,3.763158 -2.182813,1.30536 -5.278438,3.12511 -6.879167,4.04389 -1.600729,0.91877 -4.04151,2.3486 -5.423958,3.1774 -1.382448,0.8288 -3.108854,1.83035 -3.836458,2.22567 l -1.322917,0.71877 z m 5.212005,-16.744067 c 0.725662,-0.484673 2.51001,-1.576693 3.965219,-2.42671 1.455208,-0.850017 4.491302,-2.642709 6.746875,-3.98376 2.255573,-1.341052 4.51776,-2.67318 5.027083,-2.960287 0.509323,-0.287106 1.556359,-0.895832 2.326747,-1.352723 0.770389,-0.456891 1.451285,-0.830712 1.513104,-0.830712 0.06182,0 0.919783,-0.514687 1.906586,-1.14375 0.986803,-0.629063 2.490799,-1.529823 3.342213,-2.001689 l 1.548026,-0.857939 -0.754276,1.009502 c -1.009295,1.350813 -1.214444,1.538668 -1.680317,1.538668 -0.218281,0 -0.371179,0.136617 -0.339774,0.303594 0.03301,0.175507 -0.151957,0.248924 -0.438415,0.174013 -0.615644,-0.160994 -3.209588,0.997345 -2.99845,1.338974 0.08483,0.137255 0.01678,0.164601 -0.15123,0.06077 -0.187555,-0.115915 -0.307028,-0.004 -0.309516,0.289849 -0.0031,0.368798 -0.05616,0.396403 -0.231118,0.120293 -0.173755,-0.274209 -0.525581,-0.07232 -1.498491,0.859896 -0.699283,0.670031 -1.481222,1.218238 -1.737642,1.218238 -0.582232,0 -0.879487,0.433392 -0.43295,0.631233 0.182808,0.08099 -0.02481,0.129711 -0.461372,0.108261 -1.058004,-0.05199 -2.513542,0.539714 -2.513542,1.021796 0,0.212633 -0.116602,0.314543 -0.259115,0.226464 -0.142513,-0.08808 -0.528417,-0.01602 -0.857564,0.160138 -0.775328,0.414943 -2.20991,1.856386 -2.124467,2.134627 0.03638,0.118469 -0.10957,0.215398 -0.324334,0.215398 -0.214764,0 -0.771899,0.231954 -1.238077,0.515454 -0.466178,0.2835 -0.931815,0.463405 -1.034749,0.399788 -0.102934,-0.06362 -0.334284,0.06162 -0.514111,0.278296 -0.179828,0.216679 -0.490975,0.393962 -0.691438,0.393962 -0.200463,0 -0.364478,0.126089 -0.364478,0.280198 0,0.154109 -0.110836,0.211698 -0.246301,0.127976 -0.135466,-0.08372 -0.326103,-0.0231 -0.423638,0.134714 -0.09754,0.157815 -0.343887,0.223025 -0.547449,0.144912 -0.353205,-0.135538 -0.479804,0.12863 -0.392976,0.819996 0.02385,0.189923 -0.191287,0.272662 -0.536245,0.206229 -0.319635,-0.06156 -1.405809,0.297819 -2.440001,0.807308 -2.328716,1.147228 -2.507948,1.155187 -0.833817,0.03702 z m 28.17778,-4.945563 c 0.32824,-0.613321 0.52598,-0.671459 0.52598,-0.154644 0,0.202712 -0.181348,0.438157 -0.402997,0.523212 -0.328786,0.126167 -0.351433,0.0583 -0.122983,-0.368568 z m 1.31973,-6.079462 c -0.218281,-0.141064 -0.277812,-0.260127 -0.132291,-0.264583 0.145521,-0.0045 0.08599,-0.122625 -0.132292,-0.262595 -0.218281,-0.139971 -0.635,-0.189879 -0.926042,-0.110908 -0.429251,0.116472 -0.45423,0.09112 -0.132291,-0.13428 0.352777,-0.246991 0.352777,-0.279208 0,-0.289961 -0.352778,-0.01075 -0.352778,-0.03794 0,-0.244667 0.218281,-0.127913 0.724297,-0.169944 1.124479,-0.0934 0.593346,0.113489 0.727604,0.27994 0.727604,0.902074 0,0.85901 0.01179,0.847912 -0.529167,0.498322 z m -2.38125,-4.943806 c 0.834047,-0.644969 2.607716,-1.670777 2.88885,-1.670777 0.202321,0 0.12233,1.007785 -0.146416,1.844668 -0.110112,0.342891 -0.154517,0.342891 -0.371365,0 -0.135465,-0.214203 -0.248122,-0.285584 -0.25035,-0.158626 -0.0022,0.126959 -0.205501,0.06743 -0.451716,-0.132291 -0.261429,-0.212061 -0.369121,-0.2322 -0.258865,-0.04841 0.119135,0.198591 0.01584,0.30389 -0.27994,0.285375 -0.257807,-0.01614 -0.766396,0.06536 -1.130198,0.181113 l -0.661458,0.210455 z"
         id="path30" /></g></g></svg>
